  0
SECTION
  2
HEADER
  9
$ACADVER
  1
AC1014
  9
$ACADMAINTVER
 70
     0
  9
$DWGCODEPAGE
  3
ANSI_1252
  9
$INSBASE
 10
4576.653064
 20
625.814348
 30
0.0
  9
$EXTMIN
 10
4593.435821
 20
655.015449
 30
0.0
  9
$EXTMAX
 10
5576.431965
 20
1005.259261
 30
0.0
  9
$LIMMIN
 10
0.0
 20
0.0
  9
$LIMMAX
 10
36.0
 20
24.0
  9
$ORTHOMODE
 70
     1
  9
$REGENMODE
 70
     1
  9
$FILLMODE
 70
     1
  9
$QTEXTMODE
 70
     0
  9
$MIRRTEXT
 70
     1
  9
$DRAGMODE
 70
     2
  9
$LTSCALE
 40
48.0
  9
$OSMODE
 70
   171
  9
$ATTMODE
 70
     1
  9
$TEXTSIZE
 40
6.0
  9
$TRACEWID
 40
0.05
  9
$TEXTSTYLE
  7
STANDARD
  9
$CLAYER
  8
CO4
  9
$CELTYPE
  6
CONTINUOUS
  9
$CECOLOR
 62
   256
  9
$CELTSCALE
 40
1.0
  9
$DELOBJ
 70
     1
  9
$DISPSILH
 70
     0
  9
$DIMSCALE
 40
24.0
  9
$DIMASZ
 40
0.09375
  9
$DIMEXO
 40
0.0625
  9
$DIMDLI
 40
0.0625
  9
$DIMRND
 40
0.0
  9
$DIMDLE
 40
0.125
  9
$DIMEXE
 40
0.0625
  9
$DIMTP
 40
0.0
  9
$DIMTM
 40
0.0
  9
$DIMTXT
 40
0.09375
  9
$DIMCEN
 40
0.0625
  9
$DIMTSZ
 40
0.0
  9
$DIMTOL
 70
     0
  9
$DIMLIM
 70
     0
  9
$DIMTIH
 70
     0
  9
$DIMTOH
 70
     0
  9
$DIMSE1
 70
     0
  9
$DIMSE2
 70
     0
  9
$DIMTAD
 70
     1
  9
$DIMZIN
 70
     3
  9
$DIMBLK
  1

  9
$DIMASO
 70
     1
  9
$DIMSHO
 70
     1
  9
$DIMPOST
  1

  9
$DIMAPOST
  1

  9
$DIMALT
 70
     0
  9
$DIMALTD
 70
     2
  9
$DIMALTF
 40
25.4
  9
$DIMLFAC
 40
1.0
  9
$DIMTOFL
 70
     1
  9
$DIMTVP
 40
0.0
  9
$DIMTIX
 70
     1
  9
$DIMSOXD
 70
     0
  9
$DIMSAH
 70
     1
  9
$DIMBLK1
  1
TICK
  9
$DIMBLK2
  1
TICK
  9
$DIMSTYLE
  2
BEAU_24
  9
$DIMCLRD
 70
     0
  9
$DIMCLRE
 70
     2
  9
$DIMCLRT
 70
     0
  9
$DIMTFAC
 40
0.6
  9
$DIMGAP
 40
0.0625
  9
$DIMJUST
 70
     0
  9
$DIMSD1
 70
     0
  9
$DIMSD2
 70
     0
  9
$DIMTOLJ
 70
     1
  9
$DIMTZIN
 70
     0
  9
$DIMALTZ
 70
     0
  9
$DIMALTTZ
 70
     0
  9
$DIMFIT
 70
     3
  9
$DIMUPT
 70
     0
  9
$DIMUNIT
 70
     6
  9
$DIMDEC
 70
     4
  9
$DIMTDEC
 70
     4
  9
$DIMALTU
 70
     2
  9
$DIMALTTD
 70
     2
  9
$DIMTXSTY
  7
STANDARD
  9
$DIMAUNIT
 70
     0
  9
$LUNITS
 70
     4
  9
$LUPREC
 70
     5
  9
$SKETCHINC
 40
0.1
  9
$FILLETRAD
 40
0.0
  9
$AUNITS
 70
     0
  9
$AUPREC
 70
     0
  9
$MENU
  1
acad
  9
$ELEVATION
 40
0.0
  9
$PELEVATION
 40
0.0
  9
$THICKNESS
 40
0.0
  9
$LIMCHECK
 70
     0
  9
$BLIPMODE
 70
     0
  9
$CHAMFERA
 40
6.0
  9
$CHAMFERB
 40
6.0
  9
$CHAMFERC
 40
0.0
  9
$CHAMFERD
 40
0.0
  9
$SKPOLY
 70
     0
  9
$TDCREATE
 40
2450624.902735416
  9
$TDUPDATE
 40
2458598.794899259
  9
$TDINDWG
 40
100.5138578472
  9
$TDUSRTIMER
 40
100.5138578472
  9
$USRTIMER
 70
     1
  9
$ANGBASE
 50
0.0
  9
$ANGDIR
 70
     0
  9
$PDMODE
 70
     3
  9
$PDSIZE
 40
0.0
  9
$PLINEWID
 40
0.0
  9
$COORDS
 70
     0
  9
$SPLFRAME
 70
     0
  9
$SPLINETYPE
 70
     6
  9
$SPLINESEGS
 70
     8
  9
$ATTDIA
 70
     0
  9
$ATTREQ
 70
     1
  9
$HANDLING
 70
     1
  9
$HANDSEED
  5
14A
  9
$SURFTAB1
 70
     6
  9
$SURFTAB2
 70
     6
  9
$SURFTYPE
 70
     6
  9
$SURFU
 70
     6
  9
$SURFV
 70
     6
  9
$UCSNAME
  2

  9
$UCSORG
 10
0.0
 20
0.0
 30
0.0
  9
$UCSXDIR
 10
1.0
 20
0.0
 30
0.0
  9
$UCSYDIR
 10
0.0
 20
1.0
 30
0.0
  9
$PUCSNAME
  2

  9
$PUCSORG
 10
0.0
 20
0.0
 30
0.0
  9
$PUCSXDIR
 10
1.0
 20
0.0
 30
0.0
  9
$PUCSYDIR
 10
0.0
 20
1.0
 30
0.0
  9
$USERI1
 70
     0
  9
$USERI2
 70
     0
  9
$USERI3
 70
     0
  9
$USERI4
 70
     0
  9
$USERI5
 70
     0
  9
$USERR1
 40
0.0
  9
$USERR2
 40
0.0
  9
$USERR3
 40
0.0
  9
$USERR4
 40
0.0
  9
$USERR5
 40
0.0
  9
$WORLDVIEW
 70
     1
  9
$SHADEDGE
 70
     3
  9
$SHADEDIF
 70
    70
  9
$TILEMODE
 70
     1
  9
$MAXACTVP
 70
    16
  9
$PINSBASE
 10
0.0
 20
0.0
 30
0.0
  9
$PLIMCHECK
 70
     0
  9
$PEXTMIN
 10
-12.3667
 20
-14.8675
 30
0.0
  9
$PEXTMAX
 10
63.747761
 20
21.017527
 30
0.0
  9
$PLIMMIN
 10
0.0
 20
0.0
  9
$PLIMMAX
 10
12.0
 20
9.0
  9
$UNITMODE
 70
     0
  9
$VISRETAIN
 70
     1
  9
$PLINEGEN
 70
     0
  9
$PSLTSCALE
 70
     0
  9
$TREEDEPTH
 70
  3020
  9
$PICKSTYLE
 70
     0
  9
$CMLSTYLE
  2
STANDARD
  9
$CMLJUST
 70
     0
  9
$CMLSCALE
 40
1.0
  9
$PROXYGRAPHICS
 70
     1
  9
$MEASUREMENT
 70
     0
  0
ENDSEC
  0
SECTION
  2
CLASSES
  0
CLASS
  1
LWPOLYLINE
  2
AcDbPolyline
  3
"AutoCAD"
 90
        0
280
     0
281
     1
  0
CLASS
  1
DICTIONARYVAR
  2
AcDbDictionaryVar
  3
"AutoCAD"
 90
        0
280
     0
281
     0
  0
CLASS
  1
IDBUFFER
  2
AcDbIdBuffer
  3
"Acad"
 90
        0
280
     0
281
     0
  0
CLASS
  1
HATCH
  2
AcDbHatch
  3
"ACAD_SEDONA"
 90
        0
280
     0
281
     1
  0
CLASS
  1
SPATIAL_FILTER
  2
AcDbSpatialFilter
  3
"Acad"
 90
        0
280
     0
281
     0
  0
CLASS
  1
KTI_CHANNEL
  2
Kti_Channel
  3
"KtiSteel|Please contact:|     Ketiv Technologies, Inc.|     6601 NE 78th Court, A-8|     Portland, OR  97218  USA|     Phone:  (800) 458-0690|     Web Site:  www.ketiv.com|"
 90
      255
280
     0
281
     1
  0
CLASS
  1
ACDBDICTIONARYWDFLT
  2
AcDbDictionaryWithDefault
  3
AutoCAD 2000
 90
        0
280
     1
281
     0
  0
CLASS
  1
ACDBPLACEHOLDER
  2
AcDbPlaceHolder
  3
AutoCAD 2000
 90
        0
280
     1
281
     0
  0
CLASS
  1
LAYOUT
  2
AcDbLayout
  3
AutoCAD 2000
 90
        0
280
     1
281
     0
  0
CLASS
  1
LONG_TRANSACTION
  2
AcDbLongTransaction
  3
AutoCAD 2000
 90
        0
280
     1
281
     0
  0
CLASS
  1
LWPOLYLINE
  2
AcDbPolyline
  3
"AutoCAD"
 90
        0
280
     0
281
     1
  0
CLASS
  1
HATCH
  2
AcDbHatch
  3
"ACAD_SEDONA"
 90
        0
280
     0
281
     1
  0
CLASS
  1
XRECORD
  2
AcDbXrecord
  3
"<Built In>"
 90
        0
280
     0
281
     0
  0
CLASS
  1
LONG_TRANSACTION
  2
AcDbLongTransaction
  3
AutoCAD 2000
 90
        0
280
     1
281
     0
  0
CLASS
  1
LWPOLYLINE
  2
AcDbPolyline
  3
"AutoCAD"
 90
        0
280
     0
281
     1
  0
CLASS
  1
HATCH
  2
AcDbHatch
  3
"ACAD_SEDONA"
 90
        0
280
     0
281
     1
  0
CLASS
  1
XRECORD
  2
AcDbXrecord
  3
"<Built In>"
 90
        0
280
     0
281
     0
  0
CLASS
  1
LONG_TRANSACTION
  2
AcDbLongTransaction
  3
AutoCAD 2000
 90
        0
280
     1
281
     0
  0
CLASS
  1
LWPOLYLINE
  2
AcDbPolyline
  3
"AutoCAD"
 90
        0
280
     0
281
     1
  0
CLASS
  1
HATCH
  2
AcDbHatch
  3
"ACAD_SEDONA"
 90
        0
280
     0
281
     1
  0
CLASS
  1
XRECORD
  2
AcDbXrecord
  3
"<Built In>"
 90
        0
280
     0
281
     0
  0
CLASS
  1
KTI_ANGLE
  2
Kti_Angle
  3
"KtiSteel|Please contact:|     Ketiv Technologies, Inc.|     6601 NE 78th Court, A-8|     Portland, OR  97218  USA|     Phone:  (800) 458-0690|     Web Site:  www.ketiv.com|"
 90
      255
280
     0
281
     1
  0
ENDSEC
  0
SECTION
  2
TABLES
  0
TABLE
  2
VPORT
  5
16
100
AcDbSymbolTable
 70
     1
  0
VPORT
  5
17
100
AcDbSymbolTableRecord
100
AcDbViewportTableRecord
  2
*ACTIVE
 70
     0
 10
0.0
 20
0.0
 11
1.0
 21
1.0
 12
4825.424609
 22
716.456328
 13
0.0
 23
0.0
 14
1.0
 24
1.0
 15
0.0
 25
0.0
 16
0.0
 26
0.0
 36
1.0
 17
0.0
 27
0.0
 37
0.0
 40
823.006985
 41
2.491204
 42
50.0
 43
0.0
 44
0.0
 50
0.0
 51
0.0
 71
     0
 72
   100
 73
     1
 74
     1
 75
     0
 76
     0
 77
     0
 78
     0
  0
ENDTAB
  0
TABLE
  2
LTYPE
  5
11
100
AcDbSymbolTable
 70
     4
  0
LTYPE
  5
12
100
AcDbSymbolTableRecord
100
AcDbLinetypeTableRecord
  2
BYBLOCK
 70
     0
  3

 72
    65
 73
     0
 40
0.0
  0
LTYPE
  5
13
100
AcDbSymbolTableRecord
100
AcDbLinetypeTableRecord
  2
BYLAYER
 70
     0
  3

 72
    65
 73
     0
 40
0.0
  0
LTYPE
  5
7
100
AcDbSymbolTableRecord
100
AcDbLinetypeTableRecord
  2
CONTINUOUS
 70
     0
  3
Solid line
 72
    65
 73
     0
 40
0.0
  0
LTYPE
  5
6A
100
AcDbSymbolTableRecord
100
AcDbLinetypeTableRecord
  2
HIDDEN2
 70
     0
  3
Hidden (.5x) _ _ _ _ _ _ _ _ _ _ _ _ _ _ _ _ _
 72
    65
 73
     2
 40
0.1875
 49
0.125
 74
     0
 49
-0.0625
 74
     0
  0
LTYPE
  5
4D
100
AcDbSymbolTableRecord
100
AcDbLinetypeTableRecord
  2
ZIGZAG
 70
     0
  3
Zig zag /\/\/\/\/\/\/\/\/\/\/\/\/\/\/\/\/\/\/\/
 72
    65
 73
     4
 40
0.8001
 49
0.0001
 74
     0
 49
-0.2
 74
     4
 75
   131
340
4E
 46
0.2
 50
0.0
 44
-0.2
 45
0.0
 49
-0.4
 74
     4
 75
   131
340
4E
 46
0.2
 50
180.0
 44
0.2
 45
0.0
 49
-0.2
 74
     0
  0
LTYPE
  5
3E
100
AcDbSymbolTableRecord
100
AcDbLinetypeTableRecord
  2
DASHDOT2
 70
     0
  3
Dash dot (.5x) _._._._._._._._._._._._._._._.
 72
    65
 73
     4
 40
0.5
 49
0.25
 74
     0
 49
-0.125
 74
     0
 49
0.0
 74
     0
 49
-0.125
 74
     0
  0
ENDTAB
  0
TABLE
  2
LAYER
  5
E
100
AcDbSymbolTable
 70
     8
  0
LAYER
  5
6
100
AcDbSymbolTableRecord
100
AcDbLayerTableRecord
  2
0
 70
     1
 62
     7
  6
CONTINUOUS
  0
LAYER
  5
2D
100
AcDbSymbolTableRecord
100
AcDbLayerTableRecord
  2
_KTI_CONTROL
 70
     5
 62
     7
  6
CONTINUOUS
  0
LAYER
  5
3D
100
AcDbSymbolTableRecord
100
AcDbLayerTableRecord
  2
CO1
 70
     0
 62
     1
  6
CONTINUOUS
  0
LAYER
  5
39
100
AcDbSymbolTableRecord
100
AcDbLayerTableRecord
  2
CO2
 70
     0
 62
     2
  6
CONTINUOUS
  0
LAYER
  5
48
100
AcDbSymbolTableRecord
100
AcDbLayerTableRecord
  2
CO3
 70
     0
 62
     3
  6
CONTINUOUS
  0
LAYER
  5
1F
100
AcDbSymbolTableRecord
100
AcDbLayerTableRecord
  2
CO4
 70
     0
 62
     4
  6
CONTINUOUS
  0
LAYER
  5
3B
100
AcDbSymbolTableRecord
100
AcDbLayerTableRecord
  2
CO6
 70
     0
 62
     6
  6
CONTINUOUS
  0
LAYER
  5
36
100
AcDbSymbolTableRecord
100
AcDbLayerTableRecord
  2
CO253
 70
     0
 62
   253
  6
CONTINUOUS
  0
ENDTAB
  0
TABLE
  2
STYLE
  5
F
100
AcDbSymbolTable
 70
     2
  0
STYLE
  5
10
100
AcDbSymbolTableRecord
100
AcDbTextStyleTableRecord
  2
STANDARD
 70
     0
 40
0.0
 41
1.0
 50
0.0
 71
     0
 42
6.0
  3
architxt.shx
  4

  0
STYLE
  5
4E
100
AcDbSymbolTableRecord
100
AcDbTextStyleTableRecord
  2

 70
     1
 40
0.0
 41
1.0
 50
0.0
 71
     0
 42
0.09375
  3
ltypeshp.shx
  4

  0
ENDTAB
  0
TABLE
  2
VIEW
  5
14
100
AcDbSymbolTable
 70
     0
  0
ENDTAB
  0
TABLE
  2
UCS
  5
15
100
AcDbSymbolTable
 70
     0
  0
ENDTAB
  0
TABLE
  2
APPID
  5
18
100
AcDbSymbolTable
 70
     1
  0
APPID
  5
19
100
AcDbSymbolTableRecord
100
AcDbRegAppTableRecord
  2
ACAD
 70
     0
  0
ENDTAB
  0
TABLE
  2
DIMSTYLE
  5
1A
100
AcDbSymbolTable
 70
     1
  0
DIMSTYLE
105
21
102
{ACAD_XDICTIONARY
360
22
102
}
100
AcDbSymbolTableRecord
100
AcDbDimStyleTableRecord
  2
BEAU_24
 70
     0
  3

  4

  5

  6
TICK
  7
TICK
 40
24.0
 41
0.09375
 42
0.0625
 43
0.0625
 44
0.0625
 45
0.0
 46
0.125
 47
0.0
 48
0.0
140
0.09375
141
0.0625
142
0.0
143
25.4
144
1.0
145
0.0
146
0.6
147
0.0625
 71
     0
 72
     0
 73
     0
 74
     0
 75
     0
 76
     0
 77
     1
 78
     3
170
     0
171
     2
172
     1
173
     1
174
     1
175
     0
176
     0
177
     2
178
     0
270
     6
271
     4
272
     4
273
     2
274
     2
340
10
275
     0
280
     0
281
     0
282
     0
283
     1
284
     0
285
     0
286
     0
287
     3
288
     0
  0
ENDTAB
  0
TABLE
  2
BLOCK_RECORD
  5
1
100
AcDbSymbolTable
 70
     2
  0
BLOCK_RECORD
  5
2
102
{ACAD_XDICTIONARY
360
3
102
}
100
AcDbSymbolTableRecord
100
AcDbBlockTableRecord
  2
*MODEL_SPACE
  0
BLOCK_RECORD
  5
9
102
{ACAD_XDICTIONARY
360
A
102
}
100
AcDbSymbolTableRecord
100
AcDbBlockTableRecord
  2
*PAPER_SPACE
  0
BLOCK_RECORD
  5
27
100
AcDbSymbolTableRecord
100
AcDbBlockTableRecord
  2
TICK
  0
BLOCK_RECORD
  5
24
100
AcDbSymbolTableRecord
100
AcDbBlockTableRecord
  2

  0
ENDTAB
  0
ENDSEC
  0
SECTION
  2
BLOCKS
  0
BLOCK
  5
5
100
AcDbEntity
  8
0
100
AcDbBlockBegin
  2
*MODEL_SPACE
 70
     0
 10
0.0
 20
0.0
 30
0.0
  3
*MODEL_SPACE
  1

  0
ENDBLK
  5
8
100
AcDbEntity
  8
0
100
AcDbBlockEnd
  0
BLOCK
  5
C
100
AcDbEntity
 67
     1
  8
0
100
AcDbBlockBegin
  2
*PAPER_SPACE
 70
     0
 10
0.0
 20
0.0
 30
0.0
  3
*PAPER_SPACE
  1

  0
ENDBLK
  5
D
100
AcDbEntity
 67
     1
  8
0
100
AcDbBlockEnd
  0
BLOCK
  5
33
100
AcDbEntity
  8
0
100
AcDbBlockBegin
  2
TICK
 70
     0
 10
0.0
 20
0.0
 30
0.0
  3
TICK
  1
TICK
  0
LINE
  5
28
100
AcDbEntity
  8
0
100
AcDbLine
 10
0.0
 20
0.0
 30
0.0
 11
-1.0
 21
0.0
 31
0.0
  0
LWPOLYLINE
  5
29
100
AcDbEntity
  8
0
100
AcDbPolyline
 90
        2
 70
     0
 43
0.125
 10
-0.353553
 20
-0.353553
 10
0.353553
 20
0.353553
  0
POLYLINE
  5
2A
100
AcDbEntity
  8
_KTI_CONTROL
 60
     1
100
AcDb3dPolyline
 66
     1
 10
0.0
 20
0.0
 30
0.0
 70
     8
  0
VERTEX
  5
2B
100
AcDbEntity
  8
_KTI_CONTROL
100
AcDbVertex
100
AcDb3dPolylineVertex
 10
0.0
 20
0.0
 30
0.0
 70
    32
  0
VERTEX
  5
2C
100
AcDbEntity
  8
_KTI_CONTROL
100
AcDbVertex
100
AcDb3dPolylineVertex
 10
0.0
 20
0.0
 30
0.0
 70
    32
  0
SEQEND
  5
2E
100
AcDbEntity
  8
_KTI_CONTROL
  0
POLYLINE
  5
2F
100
AcDbEntity
  8
_KTI_CONTROL
 60
     1
100
AcDb3dPolyline
 66
     1
 10
0.0
 20
0.0
 30
0.0
 70
     8
  0
VERTEX
  5
30
100
AcDbEntity
  8
_KTI_CONTROL
100
AcDbVertex
100
AcDb3dPolylineVertex
 10
0.0
 20
0.0
 30
0.0
 70
    32
  0
VERTEX
  5
31
100
AcDbEntity
  8
_KTI_CONTROL
100
AcDbVertex
100
AcDb3dPolylineVertex
 10
0.0
 20
0.0
 30
0.0
 70
    32
  0
SEQEND
  5
32
100
AcDbEntity
  8
_KTI_CONTROL
  0
ENDBLK
  5
34
100
AcDbEntity
  8
0
100
AcDbBlockEnd
  0
BLOCK
  5
25
100
AcDbEntity
  8
0
100
AcDbBlockBegin
  2

 70
     0
 10
0.0
 20
0.0
 30
0.0
  3

  1
C:\Program Files\Autodesk\ACADMAP2\Mercury\Tics.dwg
  0
ENDBLK
  5
26
100
AcDbEntity
  8
0
100
AcDbBlockEnd
  0
ENDSEC
  0
SECTION
  2
ENTITIES
  0
HATCH
  5
35
100
AcDbEntity
  8
CO253
100
AcDbHatch
 10
0.0
 20
0.0
 30
0.0
210
0.0
220
0.0
230
1.0
  2
DASH
 70
     0
 71
     0
 91
        3
 92
        7
 72
     0
 73
     1
 93
        4
 10
5020.43196473187
 20
806.0154493419124
 10
5020.43196473187
 20
710.0154493419124
 10
5356.43196473187
 20
710.0154493419124
 10
5356.43196473187
 20
806.0154493419123
 97
        0
 92
       22
 72
     0
 73
     1
 93
        6
 10
5254.431964731414
 20
790.0154493419123
 10
5314.431964731415
 20
790.0154493419123
 10
5314.431964731417
 20
742.0154493419079
 10
5314.431964731417
 20
736.0154493419078
 10
5254.431964731415
 20
736.0154493419078
 10
5254.431964731415
 20
742.0154493419079
 97
        0
 92
       22
 72
     0
 73
     1
 93
        6
 10
5146.431964731865
 20
790.0154493419123
 10
5146.431964731868
 20
742.015449341908
 10
5146.431964731868
 20
736.015449341908
 10
5086.431964731866
 20
736.015449341908
 10
5086.431964731866
 20
742.015449341908
 10
5086.431964731866
 20
790.0154493419123
 97
        0
 75
     0
 76
     1
 52
90.0
 41
157.48
 77
     0
 78
     1
 53
90.0
 43
0.0
 44
0.0
 45
-19.68499999999999
 46
19.68499999999999
 79
     2
 49
19.685
 49
-19.685
 47
0.286549
 98
        7
 10
5223.86798
 20
798.261226
 10
5223.86798
 20
798.261226
 10
5223.86798
 20
798.261226
 10
5223.86798
 20
798.261226
 10
5223.86798
 20
798.261226
 10
5223.86798
 20
798.261226
 10
5223.86798
 20
798.261226
  0
HATCH
  5
37
100
AcDbEntity
  8
CO253
100
AcDbHatch
 10
0.0
 20
0.0
 30
0.0
210
0.0
220
0.0
230
1.0
  2
ANSI31
 70
     0
 71
     0
 91
        3
 92
        7
 72
     0
 73
     1
 93
       12
 10
5356.431964731871
 20
806.0154493419124
 10
5020.431964731872
 20
806.0154493419124
 10
5020.43196473187
 20
773.5031405120171
 10
5086.431964731866
 20
773.5031405120172
 10
5086.431964731866
 20
794.0154493419123
 10
5146.431964731866
 20
794.0154493419123
 10
5146.431964731867
 20
773.5031405120172
 10
5254.431964731415
 20
773.5031405120172
 10
5254.431964731415
 20
794.0154493419123
 10
5314.431964731415
 20
794.0154493419123
 10
5314.431964731417
 20
773.5031405120172
 10
5356.431964731871
 20
773.5031405120172
 97
        0
 92
        7
 72
     0
 73
     1
 93
       18
 10
5020.43196473187
 20
773.5031405120171
 10
5020.431964731869
 20
710.0154493419124
 10
5352.43196473187
 20
710.0154493419124
 10
5352.43196473187
 20
728.4054547210192
 10
5356.431964731871
 20
728.4054547210192
 10
5356.431964731871
 20
773.5031405120171
 10
5314.431964731415
 20
773.503140512017
 10
5314.431964731417
 20
746.0154493419079
 10
5314.431964731417
 20
740.0154493419079
 10
5254.431964731415
 20
740.0154493419079
 10
5254.431964731415
 20
746.0154493419079
 10
5254.431964731415
 20
773.5031405120172
 10
5146.431964731868
 20
773.5031405120171
 10
5146.431964731868
 20
746.015449341908
 10
5146.431964731868
 20
740.015449341908
 10
5086.431964731866
 20
740.015449341908
 10
5086.431964731866
 20
746.015449341908
 10
5086.431964731866
 20
773.5031405120172
 97
        0
 92
        7
 72
     0
 73
     1
 93
        4
 10
5020.431964731869
 20
710.0154493419122
 10
5020.431964731869
 20
706.4102656914521
 10
5352.43196473187
 20
706.410265691449
 10
5352.431964731872
 20
710.0154493419124
 97
        0
 75
     0
 76
     1
 52
135.0
 41
157.48
 77
     0
 78
     1
 53
180.0
 43
0.0
 44
0.0
 45
-0.0000000000000036
 46
-19.68499999999999
 79
     0
 47
0.338682
 98
        3
 10
5349.705295
 20
785.018343
 10
5050.427784
 20
755.89168
 10
5087.371415
 20
709.492252
  0
LINE
  5
38
100
AcDbEntity
  8
CO2
100
AcDbLine
 10
5020.431965
 20
706.410266
 30
0.0
 11
5356.431965
 21
706.410266
 31
0.0
  0
LWPOLYLINE
  5
3A
100
AcDbEntity
  8
CO6
100
AcDbPolyline
 90
        5
 70
     0
 43
0.0
 10
5372.75735
 20
655.015449
 10
5372.75735
 20
655.015449
 10
5356.431965
 20
656.405455
 10
5068.431965
 20
676.015449
 10
5020.431965
 20
685.013773
  0
LWPOLYLINE
  5
3C
100
AcDbEntity
  8
CO1
  6
DASHDOT2
100
AcDbPolyline
 90
        3
 70
     0
 43
0.0
 10
5062.431965
 20
915.015449
 10
5033.431965
 20
889.015449
 10
5062.431965
 20
863.015449
  0
LINE
  5
3F
100
AcDbEntity
  8
CO1
100
AcDbLine
 10
4972.431965
 20
941.14545
 30
0.0
 11
5188.431965
 21
946.520507
 31
0.0
  0
LINE
  5
40
100
AcDbEntity
  8
CO2
100
AcDbLine
 10
5404.431965
 20
935.14545
 30
0.0
 11
4972.431965
 21
935.14545
 31
0.0
  0
LINE
  5
41
100
AcDbEntity
  8
CO4
100
AcDbLine
 10
5409.431965
 20
941.14545
 30
0.0
 11
4969.845961
 21
941.14545
 31
0.0
  0
LWPOLYLINE
  5
42
100
AcDbEntity
  8
CO4
100
AcDbPolyline
 90
        4
 70
     1
 43
0.0
 10
5032.431965
 20
862.015449
 10
5092.431965
 20
862.015449
 10
5092.431965
 20
856.015449
 10
5032.431965
 20
856.015449
  0
LINE
  5
43
100
AcDbEntity
  8
CO4
100
AcDbLine
 10
4972.431965
 20
806.015449
 30
0.0
 11
5408.77511
 21
806.015449
 31
0.0
  0
LWPOLYLINE
  5
44
100
AcDbEntity
  8
CO2
100
AcDbPolyline
 90
        4
 70
     1
 43
0.0
 10
5032.431965
 20
916.015449
 10
5092.431965
 20
916.015449
 10
5092.431965
 20
862.015449
 10
5032.431965
 20
862.015449
  0
LWPOLYLINE
  5
45
100
AcDbEntity
  8
CO2
100
AcDbPolyline
 90
        4
 70
     1
 43
0.0
 10
5059.931965
 20
865.515449
 10
5035.931965
 20
865.515449
 10
5035.931965
 20
912.515449
 10
5059.931965
 20
912.515449
  0
LWPOLYLINE
  5
46
100
AcDbEntity
  8
CO2
100
AcDbPolyline
 90
        4
 70
     1
 43
0.0
 10
5062.431965
 20
863.015449
 10
5033.431965
 20
863.015449
 10
5033.431965
 20
915.015449
 10
5062.431965
 20
915.015449
  0
LWPOLYLINE
  5
47
100
AcDbEntity
  8
CO3
100
AcDbPolyline
 90
        4
 70
     1
 43
0.0
 10
4945.972329
 20
858.015449
 10
4948.763541
 20
858.015449
 10
4948.763541
 20
807.268985
 10
4945.972329
 20
807.268985
  0
LWPOLYLINE
  5
49
100
AcDbEntity
  8
CO3
100
AcDbPolyline
 90
        4
 70
     1
 43
0.0
 10
4967.637768
 20
858.015449
 10
4970.42898
 20
858.015449
 10
4970.42898
 20
806.929898
 10
4967.637768
 20
806.929898
  0
LWPOLYLINE
  5
4A
100
AcDbEntity
  8
CO3
100
AcDbPolyline
 90
        4
 70
     1
 43
0.0
 10
4825.637406
 20
858.015449
 10
4828.428618
 20
858.015449
 10
4828.428618
 20
807.268985
 10
4825.637406
 20
807.268985
  0
LWPOLYLINE
  5
4B
100
AcDbEntity
  8
CO3
100
AcDbPolyline
 90
        4
 70
     1
 43
0.0
 10
4872.588358
 20
858.015449
 10
4875.37957
 20
858.015449
 10
4875.37957
 20
807.268985
 10
4872.588358
 20
807.268985
  0
LINE
  5
4C
100
AcDbEntity
  8
CO2
  6
ZIGZAG
 48
0.125
100
AcDbLine
 10
4946.02188
 20
935.015015
 30
0.0
 11
4946.02188
 21
740.015449
 31
0.0
  0
LINE
  5
4F
100
AcDbEntity
  8
CO4
100
AcDbLine
 10
4972.431965
 20
806.015449
 30
0.0
 11
4972.431965
 21
935.14545
 31
0.0
  0
ARC
  5
50
100
AcDbEntity
  8
CO2
100
AcDbCircle
 10
4733.403967
 20
-4175.603787
 30
0.0
 40
4973.589029
100
AcDbArc
 50
88.655588
 51
91.612602
  0
LINE
  5
51
100
AcDbEntity
  8
CO2
100
AcDbLine
 10
4593.439696
 20
796.015449
 30
0.0
 11
4825.637406
 21
816.015449
 31
0.0
  0
LINE
  5
52
100
AcDbEntity
  8
CO4
100
AcDbLine
 10
5020.431965
 20
806.015449
 30
0.0
 11
5020.431965
 21
685.013773
 31
0.0
  0
LWPOLYLINE
  5
53
100
AcDbEntity
  8
CO6
100
AcDbPolyline
 90
        3
 70
     0
 43
0.0
 10
5020.431965
 20
685.013773
 10
5020.412278
 20
685.015449
 10
4988.190829
 20
689.784844
  0
HATCH
  5
54
100
AcDbEntity
  8
CO1
100
AcDbHatch
 10
0.0
 20
0.0
 30
0.0
210
0.0
220
0.0
230
1.0
  2
WOOD07
 70
     0
 71
     0
 91
       15
 92
        7
 72
     0
 73
     1
 93
        5
 10
4828.928617725068
 20
849.7153430996663
 10
4830.356965347456
 20
848.8451221311555
 10
4833.279725506716
 20
848.8451221311555
 10
4833.279725506716
 20
856.0154493419132
 10
4828.928617725068
 20
856.0154493419132
 97
        0
 92
        7
 72
     0
 73
     1
 93
        4
 10
4833.279725506713
 20
847.0644301366792
 10
4830.356965347454
 20
848.8451221311555
 10
4828.928617725068
 20
848.8451221311555
 10
4828.928617725068
 20
844.3601335222567
 97
        0
 92
        7
 72
     0
 73
     1
 93
        4
 10
4828.928617725068
 20
844.360133522257
 10
4828.928617725069
 20
840.8451221311556
 10
4833.279725506717
 20
840.8451221311556
 10
4833.279725506716
 20
847.0644301366808
 97
        0
 92
        7
 72
     0
 73
     1
 93
        4
 10
4833.279725506716
 20
840.8451221311555
 10
4828.928617725068
 20
840.8451221311556
 10
4828.928617725067
 20
832.8451221311555
 10
4833.279725506716
 20
832.8451221311555
 97
        0
 92
        7
 72
     0
 73
     1
 93
        4
 10
4828.928617725068
 20
824.8451221311555
 10
4833.279725506716
 20
824.8451221311555
 10
4833.279725506716
 20
832.8451221311556
 10
4828.928617725068
 20
832.8451221311556
 97
        0
 92
        7
 72
     0
 73
     1
 93
        4
 10
4828.928617725068
 20
824.8451221311558
 10
4828.928617725068
 20
822.0154493419132
 10
4833.279725506716
 20
822.015449341913
 10
4833.279725506716
 20
824.8451221311556
 97
        0
 92
        7
 72
     0
 73
     1
 93
        4
 10
4833.279725506714
 20
822.0154493419132
 10
4837.529725506714
 20
822.0154493419132
 10
4837.529725506714
 20
824.8451221311556
 10
4833.279725506716
 20
824.8451221311556
 97
        0
 92
        7
 72
     0
 73
     1
 93
        4
 10
4833.279725506716
 20
824.8451221311556
 10
4837.529725506714
 20
824.8451221311556
 10
4837.529725506714
 20
832.8451221311556
 10
4833.279725506716
 20
832.8451221311556
 97
        0
 92
        7
 72
     0
 73
     1
 93
        4
 10
4833.279725506716
 20
832.8451221311556
 10
4837.529725506715
 20
832.8451221311556
 10
4837.529725506716
 20
840.8451221311556
 10
4833.279725506716
 20
840.8451221311556
 97
        0
 92
        7
 72
     0
 73
     1
 93
        4
 10
4833.279725506716
 20
840.8451221311556
 10
4837.529725506715
 20
840.8451221311556
 10
4837.529725506715
 20
848.8451221311557
 10
4833.279725506716
 20
848.8451221311557
 97
        0
 92
        7
 72
     0
 73
     1
 93
        4
 10
4837.529725506716
 20
848.8451221311558
 10
4837.529725506716
 20
856.0154493419132
 10
4833.279725506716
 20
856.0154493419132
 10
4833.279725506716
 20
848.8451221311557
 97
        0
 92
        7
 72
     0
 73
     1
 93
        4
 10
4837.529725506716
 20
856.0154493419132
 10
4837.529725506714
 20
822.0154493419132
 10
4873.088358465604
 20
822.015449341913
 10
4873.088358465604
 20
856.0154493419132
 97
        0
 92
        7
 72
     0
 73
     1
 93
        4
 10
4900.931964731872
 20
856.015449341913
 10
4875.879570339879
 20
856.0154493419132
 10
4875.879570339879
 20
822.015449341913
 10
4900.931964731872
 20
822.0154493419128
 97
        0
 92
        7
 72
     0
 73
     1
 93
        4
 10
4900.931964731872
 20
856.0154493419128
 10
4900.931964731872
 20
822.0154493419128
 10
4946.472328804157
 20
822.015449341913
 10
4946.472328804156
 20
856.0154493419132
 97
        0
 92
        7
 72
     0
 73
     1
 93
        4
 10
4949.263540678432
 20
822.0154493419128
 10
4968.137768220071
 20
822.015449341913
 10
4968.137768220071
 20
856.015449341913
 10
4949.263540678431
 20
856.015449341913
 97
        0
 75
     0
 76
     1
 52
45.0
 41
24.0
 77
     0
 78
    40
 53
45.0
 43
10.045942
 44
9.545942
 45
36.77011830712543
 46
73.538539557976
 79
     2
 49
12.0
 49
-144.0
 53
45.0
 43
1.56066
 44
18.031223
 45
36.77011830712543
 46
73.538539557976
 79
     2
 49
12.0
 49
-144.0
 53
45.0
 43
38.154285
 44
39.775605
 45
36.77011830712543
 46
73.538539557976
 79
     2
 49
85.5
 49
-70.5024
 53
45.0
 43
31.790324
 44
46.139566
 45
36.77011830712543
 46
73.538539557976
 79
     2
 49
85.5
 49
-70.5024
 53
45.0
 43
10.045942
 44
13.788582
 45
36.77011830712543
 46
73.538539557976
 79
     2
 49
6.0
 49
-150.0
 53
45.0
 43
5.803301
 44
18.031223
 45
36.77011830712543
 46
73.538539557976
 79
     2
 49
6.0
 49
-150.0
 53
45.0
 43
10.045942
 44
15.909903
 45
36.77011830712543
 46
73.538539557976
 79
     2
 49
3.0
 49
-153.0
 53
45.0
 43
7.924621
 44
18.031223
 45
36.77011830712543
 46
73.538539557976
 79
     2
 49
3.0
 49
-153.0
 53
63.43
 43
-2.681981
 44
9.545942
 45
-36.76636791610095
 46
36.77379313176576
 79
     2
 49
9.4872
 49
-72.732
 53
63.43
 43
1.56066
 44
9.545942
 45
-36.76636791610095
 46
36.77379313176576
 79
     2
 49
9.4872
 49
-72.732
 53
63.43
 43
5.803301
 44
13.788582
 45
-36.76636791610095
 46
36.77379313176576
 79
     2
 49
4.7424
 49
-77.4768
 53
63.43
 43
12.167262
 44
18.031223
 45
-36.76636791610095
 46
36.77379313176576
 79
     2
 49
4.7424
 49
-77.4768
 53
63.43
 43
14.288582
 44
18.031223
 45
-36.76636791610095
 46
36.77379313176576
 79
     2
 49
9.4872
 49
-72.732
 53
63.43
 43
18.531223
 44
18.031223
 45
-36.76636791610095
 46
36.77379313176576
 79
     2
 49
9.4872
 49
-72.732
 53
26.57
 43
1.56066
 44
5.303301
 45
36.76211879101426
 46
73.54226364040854
 79
     2
 49
9.4872
 49
-72.732
 53
26.57
 43
1.56066
 44
9.545942
 45
36.76211879101426
 46
73.54226364040854
 79
     2
 49
9.4872
 49
-72.732
 53
26.57
 43
5.803301
 44
13.788582
 45
36.76211879101426
 46
73.54226364040854
 79
     2
 49
4.7424
 49
-77.4768
 53
26.57
 43
10.045942
 44
20.152543
 45
36.76211879101426
 46
73.54226364040854
 79
     2
 49
4.7424
 49
-77.4768
 53
26.57
 43
10.045942
 44
22.273864
 45
36.76211879101426
 46
73.54226364040854
 79
     2
 49
9.4872
 49
-72.732
 53
26.57
 43
10.045942
 44
26.516504
 45
36.76211879101426
 46
73.54226364040854
 79
     2
 49
9.4872
 49
-72.732
 53
78.69
 43
-3.742641
 44
4.242641
 45
-36.76997929329569
 46
-73.53927123306707
 79
     2
 49
5.4072
 49
-182.0808
 53
78.69
 43
22.773864
 44
26.516504
 45
-36.76997929329569
 46
-73.53927123306707
 79
     2
 49
5.4072
 49
-182.0808
 53
11.31
 43
-3.742641
 44
4.242641
 45
73.53927123306707
 46
36.76997929329568
 79
     2
 49
5.4072
 49
-182.0808
 53
11.31
 43
18.531223
 44
30.759145
 45
73.53927123306707
 46
36.76997929329568
 79
     2
 49
5.4072
 49
-182.0808
 53
45.0
 43
36.915434
 44
59.043982
 45
-36.77011830712541
 46
36.77011830712542
 79
     4
 49
60.0
 49
-29.2512
 49
37.5
 49
-29.2512
 53
45.0
 43
43.457585
 44
72.65607
 45
-36.77011830712541
 46
36.77011830712542
 79
     4
 49
31.5
 49
-29.2488
 49
66.0
 49
-29.2488
 53
45.0
 43
27.900671
 44
88.212985
 45
-36.77011830712541
 46
36.77011830712542
 79
     4
 49
31.5
 49
-29.2488
 49
66.0
 49
-29.2488
 53
45.0
 43
14.288582
 44
81.670833
 45
-36.77011830712541
 46
36.77011830712542
 79
     4
 49
60.0
 49
-29.2512
 49
37.5
 49
-29.2512
 53
63.43
 43
-6.39514
 44
60.987111
 45
-36.76100042591992
 46
36.7845257944902
 79
     2
 49
17.3928
 49
-147.0456
 53
63.43
 43
7.216949
 44
67.529263
 45
-36.76636791610095
 46
36.77379313176576
 79
     2
 49
15.8112
 49
-148.6272
 53
63.43
 43
18.709414
 44
69.827077
 45
-36.76636791610095
 46
36.77379313176576
 79
     2
 49
20.556
 49
-143.8848
 53
63.43
 43
65.729752
 44
94.928237
 45
-36.76636791610095
 46
36.77379313176576
 79
     2
 49
20.556
 49
-143.8848
 53
63.43
 43
79.34184
 44
101.470389
 45
-36.76636791610095
 46
36.77379313176576
 79
     2
 49
15.8112
 49
-148.6272
 53
63.43
 43
92.247953
 44
106.597196
 45
-36.76636791610095
 46
36.77379313176576
 79
     2
 49
17.3928
 49
-147.0456
 53
26.57
 43
16.231712
 44
38.36026
 45
110.2980307137942
 46
110.3181593647161
 79
     2
 49
17.3928
 49
-147.0456
 53
26.57
 43
22.773864
 44
51.972348
 45
110.2980307137942
 46
110.3181593647161
 79
     2
 49
15.8112
 49
-148.6272
 53
26.57
 43
25.071678
 44
63.461419
 45
110.2980307137942
 46
110.3181593647161
 79
     2
 49
20.556
 49
-143.8848
 53
26.57
 43
50.172837
 44
110.485152
 45
110.2980307137942
 46
110.3181593647161
 79
     2
 49
20.556
 49
-143.8848
 53
26.57
 43
56.714989
 44
124.09724
 45
110.2980307137942
 46
110.3181593647161
 79
     2
 49
15.8112
 49
-148.6272
 53
26.57
 43
61.841796
 44
137.003353
 45
110.2980307137942
 46
110.3181593647161
 79
     2
 49
17.3928
 49
-147.0456
 47
0.205803
 98
       15
 10
4830.68901
 20
853.718358
 10
4830.071134
 20
846.309475
 10
4831.51282
 20
844.457246
 10
4831.718791
 20
838.488969
 10
4830.894981
 20
830.874267
 10
4831.100915
 20
823.465368
 10
4834.190257
 20
823.25958
 10
4834.190257
 20
828.610447
 10
4834.396191
 20
836.225134
 10
4834.602162
 20
843.016624
 10
4834.602162
 20
849.60231
 10
4853.344037
 20
845.486262
 10
4890.209986
 20
842.399214
 10
4917.807946
 20
842.605017
 10
4956.733457
 20
843.016624
  0
HATCH
  5
55
100
AcDbEntity
  8
CO1
100
AcDbHatch
 10
0.0
 20
0.0
 30
0.0
210
0.0
220
0.0
230
1.0
  2
WOOD07
 70
     0
 71
     0
 91
       15
 92
        7
 72
     0
 73
     1
 93
        5
 10
4828.928617725068
 20
849.7153430996663
 10
4830.356965347456
 20
848.8451221311555
 10
4833.279725506716
 20
848.8451221311555
 10
4833.279725506716
 20
856.0154493419132
 10
4828.928617725068
 20
856.0154493419132
 97
        0
 92
        7
 72
     0
 73
     1
 93
        4
 10
4833.279725506713
 20
847.0644301366792
 10
4830.356965347454
 20
848.8451221311555
 10
4828.928617725068
 20
848.8451221311555
 10
4828.928617725068
 20
844.3601335222567
 97
        0
 92
        7
 72
     0
 73
     1
 93
        4
 10
4828.928617725068
 20
844.360133522257
 10
4828.928617725069
 20
840.8451221311556
 10
4833.279725506717
 20
840.8451221311556
 10
4833.279725506716
 20
847.0644301366808
 97
        0
 92
        7
 72
     0
 73
     1
 93
        4
 10
4833.279725506716
 20
840.8451221311555
 10
4828.928617725068
 20
840.8451221311556
 10
4828.928617725067
 20
832.8451221311555
 10
4833.279725506716
 20
832.8451221311555
 97
        0
 92
        7
 72
     0
 73
     1
 93
        4
 10
4828.928617725068
 20
824.8451221311555
 10
4833.279725506716
 20
824.8451221311555
 10
4833.279725506716
 20
832.8451221311556
 10
4828.928617725068
 20
832.8451221311556
 97
        0
 92
        7
 72
     0
 73
     1
 93
        4
 10
4828.928617725068
 20
824.8451221311558
 10
4828.928617725068
 20
822.0154493419132
 10
4833.279725506716
 20
822.015449341913
 10
4833.279725506716
 20
824.8451221311556
 97
        0
 92
        7
 72
     0
 73
     1
 93
        4
 10
4833.279725506714
 20
822.0154493419132
 10
4837.529725506714
 20
822.0154493419132
 10
4837.529725506714
 20
824.8451221311556
 10
4833.279725506716
 20
824.8451221311556
 97
        0
 92
        7
 72
     0
 73
     1
 93
        4
 10
4833.279725506716
 20
824.8451221311556
 10
4837.529725506714
 20
824.8451221311556
 10
4837.529725506714
 20
832.8451221311556
 10
4833.279725506716
 20
832.8451221311556
 97
        0
 92
        7
 72
     0
 73
     1
 93
        4
 10
4833.279725506716
 20
832.8451221311556
 10
4837.529725506715
 20
832.8451221311556
 10
4837.529725506716
 20
840.8451221311556
 10
4833.279725506716
 20
840.8451221311556
 97
        0
 92
        7
 72
     0
 73
     1
 93
        4
 10
4833.279725506716
 20
840.8451221311556
 10
4837.529725506715
 20
840.8451221311556
 10
4837.529725506715
 20
848.8451221311557
 10
4833.279725506716
 20
848.8451221311557
 97
        0
 92
        7
 72
     0
 73
     1
 93
        4
 10
4837.529725506716
 20
848.8451221311558
 10
4837.529725506716
 20
856.0154493419132
 10
4833.279725506716
 20
856.0154493419132
 10
4833.279725506716
 20
848.8451221311557
 97
        0
 92
        7
 72
     0
 73
     1
 93
        4
 10
4837.529725506716
 20
856.0154493419132
 10
4837.529725506714
 20
822.0154493419132
 10
4873.088358465604
 20
822.015449341913
 10
4873.088358465604
 20
856.0154493419132
 97
        0
 92
        7
 72
     0
 73
     1
 93
        4
 10
4900.931964731872
 20
856.015449341913
 10
4875.879570339879
 20
856.0154493419132
 10
4875.879570339879
 20
822.015449341913
 10
4900.931964731872
 20
822.0154493419128
 97
        0
 92
        7
 72
     0
 73
     1
 93
        4
 10
4900.931964731872
 20
856.0154493419128
 10
4900.931964731872
 20
822.0154493419128
 10
4946.472328804157
 20
822.015449341913
 10
4946.472328804156
 20
856.0154493419132
 97
        0
 92
        7
 72
     0
 73
     1
 93
        4
 10
4949.263540678432
 20
822.0154493419128
 10
4968.137768220071
 20
822.015449341913
 10
4968.137768220071
 20
856.015449341913
 10
4949.263540678431
 20
856.015449341913
 97
        0
 75
     0
 76
     1
 52
135.0
 41
24.0
 77
     0
 78
    40
 53
135.0
 43
-9.045942
 44
9.545942
 45
-73.538539557976
 46
36.77011830712543
 79
     2
 49
12.0
 49
-144.0
 53
135.0
 43
-17.531223
 44
1.06066
 45
-73.538539557976
 46
36.77011830712543
 79
     2
 49
12.0
 49
-144.0
 53
135.0
 43
-39.275605
 44
37.654285
 45
-73.538539557976
 46
36.77011830712543
 79
     2
 49
85.5
 49
-70.5024
 53
135.0
 43
-45.639566
 44
31.290324
 45
-73.538539557976
 46
36.77011830712543
 79
     2
 49
85.5
 49
-70.5024
 53
135.0
 43
-13.288582
 44
9.545942
 45
-73.538539557976
 46
36.77011830712543
 79
     2
 49
6.0
 49
-150.0
 53
135.0
 43
-17.531223
 44
5.303301
 45
-73.538539557976
 46
36.77011830712543
 79
     2
 49
6.0
 49
-150.0
 53
135.0
 43
-15.409903
 44
9.545942
 45
-73.538539557976
 46
36.77011830712543
 79
     2
 49
3.0
 49
-153.0
 53
135.0
 43
-17.531223
 44
7.424621
 45
-73.538539557976
 46
36.77011830712543
 79
     2
 49
3.0
 49
-153.0
 53
153.43
 43
-9.045942
 44
-3.181981
 45
-36.77379313176576
 46
-36.76636791610095
 79
     2
 49
9.4872
 49
-72.732
 53
153.43
 43
-9.045942
 44
1.06066
 45
-36.77379313176576
 46
-36.76636791610095
 79
     2
 49
9.4872
 49
-72.732
 53
153.43
 43
-13.288582
 44
5.303301
 45
-36.77379313176576
 46
-36.76636791610095
 79
     2
 49
4.7424
 49
-77.4768
 53
153.43
 43
-17.531223
 44
11.667262
 45
-36.77379313176576
 46
-36.76636791610095
 79
     2
 49
4.7424
 49
-77.4768
 53
153.43
 43
-17.531223
 44
13.788582
 45
-36.77379313176576
 46
-36.76636791610095
 79
     2
 49
9.4872
 49
-72.732
 53
153.43
 43
-17.531223
 44
18.031223
 45
-36.77379313176576
 46
-36.76636791610095
 79
     2
 49
9.4872
 49
-72.732
 53
116.57
 43
-4.803301
 44
1.06066
 45
-73.54226364040854
 46
36.76211879101426
 79
     2
 49
9.4872
 49
-72.732
 53
116.57
 43
-9.045942
 44
1.06066
 45
-73.54226364040854
 46
36.76211879101426
 79
     2
 49
9.4872
 49
-72.732
 53
116.57
 43
-13.288582
 44
5.303301
 45
-73.54226364040854
 46
36.76211879101426
 79
     2
 49
4.7424
 49
-77.4768
 53
116.57
 43
-19.652543
 44
9.545942
 45
-73.54226364040854
 46
36.76211879101426
 79
     2
 49
4.7424
 49
-77.4768
 53
116.57
 43
-21.773864
 44
9.545942
 45
-73.54226364040854
 46
36.76211879101426
 79
     2
 49
9.4872
 49
-72.732
 53
116.57
 43
-26.016504
 44
9.545942
 45
-73.54226364040854
 46
36.76211879101426
 79
     2
 49
9.4872
 49
-72.732
 53
168.69
 43
-3.742641
 44
-4.242641
 45
73.53927123306707
 46
-36.76997929329569
 79
     2
 49
5.4072
 49
-182.0808
 53
168.69
 43
-26.016504
 44
22.273864
 45
73.53927123306707
 46
-36.76997929329569
 79
     2
 49
5.4072
 49
-182.0808
 53
101.31
 43
-3.742641
 44
-4.242641
 45
-36.76997929329568
 46
73.53927123306707
 79
     2
 49
5.4072
 49
-182.0808
 53
101.31
 43
-30.259145
 44
18.031223
 45
-36.76997929329568
 46
73.53927123306707
 79
     2
 49
5.4072
 49
-182.0808
 53
135.0
 43
-58.543982
 44
36.415434
 45
-36.77011830712542
 46
-36.77011830712541
 79
     4
 49
60.0
 49
-29.2512
 49
37.5
 49
-29.2512
 53
135.0
 43
-72.15607
 44
42.957585
 45
-36.77011830712542
 46
-36.77011830712541
 79
     4
 49
31.5
 49
-29.2488
 49
66.0
 49
-29.2488
 53
135.0
 43
-87.712985
 44
27.400671
 45
-36.77011830712542
 46
-36.77011830712541
 79
     4
 49
31.5
 49
-29.2488
 49
66.0
 49
-29.2488
 53
135.0
 43
-81.170833
 44
13.788582
 45
-36.77011830712542
 46
-36.77011830712541
 79
     4
 49
60.0
 49
-29.2512
 49
37.5
 49
-29.2512
 53
153.43
 43
-60.487111
 44
-6.89514
 45
-36.7845257944902
 46
-36.76100042591992
 79
     2
 49
17.3928
 49
-147.0456
 53
153.43
 43
-67.029263
 44
6.716949
 45
-36.77379313176576
 46
-36.76636791610095
 79
     2
 49
15.8112
 49
-148.6272
 53
153.43
 43
-69.327077
 44
18.209414
 45
-36.77379313176576
 46
-36.76636791610095
 79
     2
 49
20.556
 49
-143.8848
 53
153.43
 43
-94.428237
 44
65.229752
 45
-36.77379313176576
 46
-36.76636791610095
 79
     2
 49
20.556
 49
-143.8848
 53
153.43
 43
-100.970389
 44
78.84184
 45
-36.77379313176576
 46
-36.76636791610095
 79
     2
 49
15.8112
 49
-148.6272
 53
153.43
 43
-106.097196
 44
91.747953
 45
-36.77379313176576
 46
-36.76636791610095
 79
     2
 49
17.3928
 49
-147.0456
 53
116.57
 43
-37.86026
 44
15.731712
 45
-110.3181593647161
 46
110.2980307137942
 79
     2
 49
17.3928
 49
-147.0456
 53
116.57
 43
-51.472348
 44
22.273864
 45
-110.3181593647161
 46
110.2980307137942
 79
     2
 49
15.8112
 49
-148.6272
 53
116.57
 43
-62.961419
 44
24.571678
 45
-110.3181593647161
 46
110.2980307137942
 79
     2
 49
20.556
 49
-143.8848
 53
116.57
 43
-109.985152
 44
49.672837
 45
-110.3181593647161
 46
110.2980307137942
 79
     2
 49
20.556
 49
-143.8848
 53
116.57
 43
-123.59724
 44
56.214989
 45
-110.3181593647161
 46
110.2980307137942
 79
     2
 49
15.8112
 49
-148.6272
 53
116.57
 43
-136.503353
 44
61.341796
 45
-110.3181593647161
 46
110.2980307137942
 79
     2
 49
17.3928
 49
-147.0456
 47
0.205803
 98
       15
 10
4830.68901
 20
853.718358
 10
4830.071134
 20
846.309475
 10
4831.51282
 20
844.457246
 10
4831.718791
 20
838.488969
 10
4830.894981
 20
830.874267
 10
4831.100915
 20
823.465368
 10
4834.190257
 20
823.25958
 10
4834.190257
 20
828.610447
 10
4834.396191
 20
836.225134
 10
4834.602162
 20
843.016624
 10
4834.602162
 20
849.60231
 10
4853.344037
 20
845.486262
 10
4890.209986
 20
842.399214
 10
4917.807946
 20
842.605017
 10
4956.733457
 20
843.016624
  0
HATCH
  5
56
100
AcDbEntity
  8
CO1
100
AcDbHatch
 10
0.0
 20
0.0
 30
0.0
210
0.0
220
0.0
230
1.0
  2
WOOD07
 70
     0
 71
     0
 91
       15
 92
        7
 72
     0
 73
     1
 93
        5
 10
4827.928617725069
 20
849.7153430996663
 10
4829.356965347456
 20
848.8451221311555
 10
4832.279725506715
 20
848.8451221311555
 10
4832.279725506715
 20
856.0154493419132
 10
4827.928617725069
 20
856.0154493419132
 97
        0
 92
        7
 72
     0
 73
     1
 93
        4
 10
4832.279725506713
 20
847.0644301366792
 10
4829.356965347454
 20
848.8451221311555
 10
4827.928617725068
 20
848.8451221311555
 10
4827.928617725068
 20
844.3601335222567
 97
        0
 92
        7
 72
     0
 73
     1
 93
        4
 10
4827.928617725069
 20
844.360133522257
 10
4827.92861772507
 20
840.8451221311556
 10
4832.279725506716
 20
840.8451221311556
 10
4832.279725506715
 20
847.0644301366808
 97
        0
 92
        7
 72
     0
 73
     1
 93
        4
 10
4832.279725506715
 20
840.8451221311555
 10
4827.928617725068
 20
840.8451221311556
 10
4827.928617725067
 20
832.8451221311555
 10
4832.279725506715
 20
832.8451221311555
 97
        0
 92
        7
 72
     0
 73
     1
 93
        4
 10
4827.928617725069
 20
824.8451221311555
 10
4832.279725506715
 20
824.8451221311555
 10
4832.279725506715
 20
832.8451221311556
 10
4827.928617725068
 20
832.8451221311556
 97
        0
 92
        7
 72
     0
 73
     1
 93
        4
 10
4827.928617725068
 20
824.8451221311558
 10
4827.928617725068
 20
822.0154493419132
 10
4832.279725506715
 20
822.015449341913
 10
4832.279725506715
 20
824.8451221311556
 97
        0
 92
        7
 72
     0
 73
     1
 93
        4
 10
4832.279725506714
 20
822.0154493419132
 10
4836.529725506713
 20
822.0154493419132
 10
4836.529725506713
 20
824.8451221311556
 10
4832.279725506715
 20
824.8451221311556
 97
        0
 92
        7
 72
     0
 73
     1
 93
        4
 10
4832.279725506715
 20
824.8451221311556
 10
4836.529725506713
 20
824.8451221311556
 10
4836.529725506713
 20
832.8451221311556
 10
4832.279725506715
 20
832.8451221311556
 97
        0
 92
        7
 72
     0
 73
     1
 93
        4
 10
4832.279725506715
 20
832.8451221311556
 10
4836.529725506714
 20
832.8451221311556
 10
4836.529725506715
 20
840.8451221311556
 10
4832.279725506715
 20
840.8451221311556
 97
        0
 92
        7
 72
     0
 73
     1
 93
        4
 10
4832.279725506715
 20
840.8451221311556
 10
4836.529725506714
 20
840.8451221311556
 10
4836.529725506714
 20
848.8451221311557
 10
4832.279725506715
 20
848.8451221311557
 97
        0
 92
        7
 72
     0
 73
     1
 93
        4
 10
4836.529725506715
 20
848.8451221311558
 10
4836.529725506715
 20
856.0154493419132
 10
4832.279725506715
 20
856.0154493419132
 10
4832.279725506715
 20
848.8451221311557
 97
        0
 92
        7
 72
     0
 73
     1
 93
        4
 10
4836.529725506715
 20
856.0154493419132
 10
4836.529725506713
 20
822.0154493419132
 10
4872.088358465604
 20
822.015449341913
 10
4872.088358465604
 20
856.0154493419132
 97
        0
 92
        7
 72
     0
 73
     1
 93
        4
 10
4899.931964731873
 20
856.015449341913
 10
4874.879570339879
 20
856.0154493419132
 10
4874.879570339879
 20
822.015449341913
 10
4899.931964731873
 20
822.0154493419128
 97
        0
 92
        7
 72
     0
 73
     1
 93
        4
 10
4899.931964731873
 20
856.0154493419128
 10
4899.931964731873
 20
822.0154493419128
 10
4945.472328804157
 20
822.015449341913
 10
4945.472328804156
 20
856.0154493419132
 97
        0
 92
        7
 72
     0
 73
     1
 93
        4
 10
4948.263540678432
 20
822.0154493419128
 10
4967.137768220071
 20
822.015449341913
 10
4967.137768220071
 20
856.015449341913
 10
4948.263540678431
 20
856.015449341913
 97
        0
 75
     0
 76
     1
 52
135.0
 41
24.0
 77
     0
 78
    40
 53
135.0
 43
-10.045942
 44
9.545942
 45
-73.538539557976
 46
36.77011830712543
 79
     2
 49
12.0
 49
-144.0
 53
135.0
 43
-18.531223
 44
1.06066
 45
-73.538539557976
 46
36.77011830712543
 79
     2
 49
12.0
 49
-144.0
 53
135.0
 43
-40.275605
 44
37.654285
 45
-73.538539557976
 46
36.77011830712543
 79
     2
 49
85.5
 49
-70.5024
 53
135.0
 43
-46.639566
 44
31.290324
 45
-73.538539557976
 46
36.77011830712543
 79
     2
 49
85.5
 49
-70.5024
 53
135.0
 43
-14.288582
 44
9.545942
 45
-73.538539557976
 46
36.77011830712543
 79
     2
 49
6.0
 49
-150.0
 53
135.0
 43
-18.531223
 44
5.303301
 45
-73.538539557976
 46
36.77011830712543
 79
     2
 49
6.0
 49
-150.0
 53
135.0
 43
-16.409903
 44
9.545942
 45
-73.538539557976
 46
36.77011830712543
 79
     2
 49
3.0
 49
-153.0
 53
135.0
 43
-18.531223
 44
7.424621
 45
-73.538539557976
 46
36.77011830712543
 79
     2
 49
3.0
 49
-153.0
 53
153.43
 43
-10.045942
 44
-3.181981
 45
-36.77379313176576
 46
-36.76636791610095
 79
     2
 49
9.4872
 49
-72.732
 53
153.43
 43
-10.045942
 44
1.06066
 45
-36.77379313176576
 46
-36.76636791610095
 79
     2
 49
9.4872
 49
-72.732
 53
153.43
 43
-14.288582
 44
5.303301
 45
-36.77379313176576
 46
-36.76636791610095
 79
     2
 49
4.7424
 49
-77.4768
 53
153.43
 43
-18.531223
 44
11.667262
 45
-36.77379313176576
 46
-36.76636791610095
 79
     2
 49
4.7424
 49
-77.4768
 53
153.43
 43
-18.531223
 44
13.788582
 45
-36.77379313176576
 46
-36.76636791610095
 79
     2
 49
9.4872
 49
-72.732
 53
153.43
 43
-18.531223
 44
18.031223
 45
-36.77379313176576
 46
-36.76636791610095
 79
     2
 49
9.4872
 49
-72.732
 53
116.57
 43
-5.803301
 44
1.06066
 45
-73.54226364040854
 46
36.76211879101426
 79
     2
 49
9.4872
 49
-72.732
 53
116.57
 43
-10.045942
 44
1.06066
 45
-73.54226364040854
 46
36.76211879101426
 79
     2
 49
9.4872
 49
-72.732
 53
116.57
 43
-14.288582
 44
5.303301
 45
-73.54226364040854
 46
36.76211879101426
 79
     2
 49
4.7424
 49
-77.4768
 53
116.57
 43
-20.652543
 44
9.545942
 45
-73.54226364040854
 46
36.76211879101426
 79
     2
 49
4.7424
 49
-77.4768
 53
116.57
 43
-22.773864
 44
9.545942
 45
-73.54226364040854
 46
36.76211879101426
 79
     2
 49
9.4872
 49
-72.732
 53
116.57
 43
-27.016504
 44
9.545942
 45
-73.54226364040854
 46
36.76211879101426
 79
     2
 49
9.4872
 49
-72.732
 53
168.69
 43
-4.742641
 44
-4.242641
 45
73.53927123306707
 46
-36.76997929329569
 79
     2
 49
5.4072
 49
-182.0808
 53
168.69
 43
-27.016504
 44
22.273864
 45
73.53927123306707
 46
-36.76997929329569
 79
     2
 49
5.4072
 49
-182.0808
 53
101.31
 43
-4.742641
 44
-4.242641
 45
-36.76997929329568
 46
73.53927123306707
 79
     2
 49
5.4072
 49
-182.0808
 53
101.31
 43
-31.259145
 44
18.031223
 45
-36.76997929329568
 46
73.53927123306707
 79
     2
 49
5.4072
 49
-182.0808
 53
135.0
 43
-59.543982
 44
36.415434
 45
-36.77011830712542
 46
-36.77011830712541
 79
     4
 49
60.0
 49
-29.2512
 49
37.5
 49
-29.2512
 53
135.0
 43
-73.15607
 44
42.957585
 45
-36.77011830712542
 46
-36.77011830712541
 79
     4
 49
31.5
 49
-29.2488
 49
66.0
 49
-29.2488
 53
135.0
 43
-88.712985
 44
27.400671
 45
-36.77011830712542
 46
-36.77011830712541
 79
     4
 49
31.5
 49
-29.2488
 49
66.0
 49
-29.2488
 53
135.0
 43
-82.170833
 44
13.788582
 45
-36.77011830712542
 46
-36.77011830712541
 79
     4
 49
60.0
 49
-29.2512
 49
37.5
 49
-29.2512
 53
153.43
 43
-61.487111
 44
-6.89514
 45
-36.7845257944902
 46
-36.76100042591992
 79
     2
 49
17.3928
 49
-147.0456
 53
153.43
 43
-68.029263
 44
6.716949
 45
-36.77379313176576
 46
-36.76636791610095
 79
     2
 49
15.8112
 49
-148.6272
 53
153.43
 43
-70.327077
 44
18.209414
 45
-36.77379313176576
 46
-36.76636791610095
 79
     2
 49
20.556
 49
-143.8848
 53
153.43
 43
-95.428237
 44
65.229752
 45
-36.77379313176576
 46
-36.76636791610095
 79
     2
 49
20.556
 49
-143.8848
 53
153.43
 43
-101.970389
 44
78.84184
 45
-36.77379313176576
 46
-36.76636791610095
 79
     2
 49
15.8112
 49
-148.6272
 53
153.43
 43
-107.097196
 44
91.747953
 45
-36.77379313176576
 46
-36.76636791610095
 79
     2
 49
17.3928
 49
-147.0456
 53
116.57
 43
-38.86026
 44
15.731712
 45
-110.3181593647161
 46
110.2980307137942
 79
     2
 49
17.3928
 49
-147.0456
 53
116.57
 43
-52.472348
 44
22.273864
 45
-110.3181593647161
 46
110.2980307137942
 79
     2
 49
15.8112
 49
-148.6272
 53
116.57
 43
-63.961419
 44
24.571678
 45
-110.3181593647161
 46
110.2980307137942
 79
     2
 49
20.556
 49
-143.8848
 53
116.57
 43
-110.985152
 44
49.672837
 45
-110.3181593647161
 46
110.2980307137942
 79
     2
 49
20.556
 49
-143.8848
 53
116.57
 43
-124.59724
 44
56.214989
 45
-110.3181593647161
 46
110.2980307137942
 79
     2
 49
15.8112
 49
-148.6272
 53
116.57
 43
-137.503353
 44
61.341796
 45
-110.3181593647161
 46
110.2980307137942
 79
     2
 49
17.3928
 49
-147.0456
 47
0.205803
 98
       15
 10
4829.68901
 20
853.718358
 10
4829.071134
 20
846.309475
 10
4830.51282
 20
844.457246
 10
4830.718791
 20
838.488969
 10
4829.894981
 20
830.874267
 10
4830.100915
 20
823.465368
 10
4833.190257
 20
823.25958
 10
4833.190257
 20
828.610447
 10
4833.396191
 20
836.225134
 10
4833.602162
 20
843.016624
 10
4833.602162
 20
849.60231
 10
4852.344037
 20
845.486262
 10
4889.209986
 20
842.399214
 10
4916.807946
 20
842.605017
 10
4955.733457
 20
843.016624
  0
HATCH
  5
57
100
AcDbEntity
  8
CO1
100
AcDbHatch
 10
0.0
 20
0.0
 30
0.0
210
0.0
220
0.0
230
1.0
  2
WOOD07
 70
     0
 71
     0
 91
       15
 92
        7
 72
     0
 73
     1
 93
        5
 10
4827.928617725069
 20
849.7153430996663
 10
4829.356965347456
 20
848.8451221311555
 10
4832.279725506715
 20
848.8451221311555
 10
4832.279725506715
 20
856.0154493419132
 10
4827.928617725069
 20
856.0154493419132
 97
        0
 92
        7
 72
     0
 73
     1
 93
        4
 10
4832.279725506713
 20
847.0644301366792
 10
4829.356965347454
 20
848.8451221311555
 10
4827.928617725068
 20
848.8451221311555
 10
4827.928617725068
 20
844.3601335222567
 97
        0
 92
        7
 72
     0
 73
     1
 93
        4
 10
4827.928617725069
 20
844.360133522257
 10
4827.92861772507
 20
840.8451221311556
 10
4832.279725506716
 20
840.8451221311556
 10
4832.279725506715
 20
847.0644301366808
 97
        0
 92
        7
 72
     0
 73
     1
 93
        4
 10
4832.279725506715
 20
840.8451221311555
 10
4827.928617725068
 20
840.8451221311556
 10
4827.928617725067
 20
832.8451221311555
 10
4832.279725506715
 20
832.8451221311555
 97
        0
 92
        7
 72
     0
 73
     1
 93
        4
 10
4827.928617725069
 20
824.8451221311555
 10
4832.279725506715
 20
824.8451221311555
 10
4832.279725506715
 20
832.8451221311556
 10
4827.928617725068
 20
832.8451221311556
 97
        0
 92
        7
 72
     0
 73
     1
 93
        4
 10
4827.928617725068
 20
824.8451221311558
 10
4827.928617725068
 20
822.0154493419132
 10
4832.279725506715
 20
822.015449341913
 10
4832.279725506715
 20
824.8451221311556
 97
        0
 92
        7
 72
     0
 73
     1
 93
        4
 10
4832.279725506714
 20
822.0154493419132
 10
4836.529725506713
 20
822.0154493419132
 10
4836.529725506713
 20
824.8451221311556
 10
4832.279725506715
 20
824.8451221311556
 97
        0
 92
        7
 72
     0
 73
     1
 93
        4
 10
4832.279725506715
 20
824.8451221311556
 10
4836.529725506713
 20
824.8451221311556
 10
4836.529725506713
 20
832.8451221311556
 10
4832.279725506715
 20
832.8451221311556
 97
        0
 92
        7
 72
     0
 73
     1
 93
        4
 10
4832.279725506715
 20
832.8451221311556
 10
4836.529725506714
 20
832.8451221311556
 10
4836.529725506715
 20
840.8451221311556
 10
4832.279725506715
 20
840.8451221311556
 97
        0
 92
        7
 72
     0
 73
     1
 93
        4
 10
4832.279725506715
 20
840.8451221311556
 10
4836.529725506714
 20
840.8451221311556
 10
4836.529725506714
 20
848.8451221311557
 10
4832.279725506715
 20
848.8451221311557
 97
        0
 92
        7
 72
     0
 73
     1
 93
        4
 10
4836.529725506715
 20
848.8451221311558
 10
4836.529725506715
 20
856.0154493419132
 10
4832.279725506715
 20
856.0154493419132
 10
4832.279725506715
 20
848.8451221311557
 97
        0
 92
        7
 72
     0
 73
     1
 93
        4
 10
4836.529725506715
 20
856.0154493419132
 10
4836.529725506713
 20
822.0154493419132
 10
4872.088358465604
 20
822.015449341913
 10
4872.088358465604
 20
856.0154493419132
 97
        0
 92
        7
 72
     0
 73
     1
 93
        4
 10
4899.931964731873
 20
856.015449341913
 10
4874.879570339879
 20
856.0154493419132
 10
4874.879570339879
 20
822.015449341913
 10
4899.931964731873
 20
822.0154493419128
 97
        0
 92
        7
 72
     0
 73
     1
 93
        4
 10
4899.931964731873
 20
856.0154493419128
 10
4899.931964731873
 20
822.0154493419128
 10
4945.472328804157
 20
822.015449341913
 10
4945.472328804156
 20
856.0154493419132
 97
        0
 92
        7
 72
     0
 73
     1
 93
        4
 10
4948.263540678432
 20
822.0154493419128
 10
4967.137768220071
 20
822.015449341913
 10
4967.137768220071
 20
856.015449341913
 10
4948.263540678431
 20
856.015449341913
 97
        0
 75
     0
 76
     1
 52
45.0
 41
24.0
 77
     0
 78
    40
 53
45.0
 43
9.045942
 44
9.545942
 45
36.77011830712543
 46
73.538539557976
 79
     2
 49
12.0
 49
-144.0
 53
45.0
 43
0.56066
 44
18.031223
 45
36.77011830712543
 46
73.538539557976
 79
     2
 49
12.0
 49
-144.0
 53
45.0
 43
37.154285
 44
39.775605
 45
36.77011830712543
 46
73.538539557976
 79
     2
 49
85.5
 49
-70.5024
 53
45.0
 43
30.790324
 44
46.139566
 45
36.77011830712543
 46
73.538539557976
 79
     2
 49
85.5
 49
-70.5024
 53
45.0
 43
9.045942
 44
13.788582
 45
36.77011830712543
 46
73.538539557976
 79
     2
 49
6.0
 49
-150.0
 53
45.0
 43
4.803301
 44
18.031223
 45
36.77011830712543
 46
73.538539557976
 79
     2
 49
6.0
 49
-150.0
 53
45.0
 43
9.045942
 44
15.909903
 45
36.77011830712543
 46
73.538539557976
 79
     2
 49
3.0
 49
-153.0
 53
45.0
 43
6.924621
 44
18.031223
 45
36.77011830712543
 46
73.538539557976
 79
     2
 49
3.0
 49
-153.0
 53
63.43
 43
-3.681981
 44
9.545942
 45
-36.76636791610095
 46
36.77379313176576
 79
     2
 49
9.4872
 49
-72.732
 53
63.43
 43
0.56066
 44
9.545942
 45
-36.76636791610095
 46
36.77379313176576
 79
     2
 49
9.4872
 49
-72.732
 53
63.43
 43
4.803301
 44
13.788582
 45
-36.76636791610095
 46
36.77379313176576
 79
     2
 49
4.7424
 49
-77.4768
 53
63.43
 43
11.167262
 44
18.031223
 45
-36.76636791610095
 46
36.77379313176576
 79
     2
 49
4.7424
 49
-77.4768
 53
63.43
 43
13.288582
 44
18.031223
 45
-36.76636791610095
 46
36.77379313176576
 79
     2
 49
9.4872
 49
-72.732
 53
63.43
 43
17.531223
 44
18.031223
 45
-36.76636791610095
 46
36.77379313176576
 79
     2
 49
9.4872
 49
-72.732
 53
26.57
 43
0.56066
 44
5.303301
 45
36.76211879101426
 46
73.54226364040854
 79
     2
 49
9.4872
 49
-72.732
 53
26.57
 43
0.56066
 44
9.545942
 45
36.76211879101426
 46
73.54226364040854
 79
     2
 49
9.4872
 49
-72.732
 53
26.57
 43
4.803301
 44
13.788582
 45
36.76211879101426
 46
73.54226364040854
 79
     2
 49
4.7424
 49
-77.4768
 53
26.57
 43
9.045942
 44
20.152543
 45
36.76211879101426
 46
73.54226364040854
 79
     2
 49
4.7424
 49
-77.4768
 53
26.57
 43
9.045942
 44
22.273864
 45
36.76211879101426
 46
73.54226364040854
 79
     2
 49
9.4872
 49
-72.732
 53
26.57
 43
9.045942
 44
26.516504
 45
36.76211879101426
 46
73.54226364040854
 79
     2
 49
9.4872
 49
-72.732
 53
78.69
 43
-4.742641
 44
4.242641
 45
-36.76997929329569
 46
-73.53927123306707
 79
     2
 49
5.4072
 49
-182.0808
 53
78.69
 43
21.773864
 44
26.516504
 45
-36.76997929329569
 46
-73.53927123306707
 79
     2
 49
5.4072
 49
-182.0808
 53
11.31
 43
-4.742641
 44
4.242641
 45
73.53927123306707
 46
36.76997929329568
 79
     2
 49
5.4072
 49
-182.0808
 53
11.31
 43
17.531223
 44
30.759145
 45
73.53927123306707
 46
36.76997929329568
 79
     2
 49
5.4072
 49
-182.0808
 53
45.0
 43
35.915434
 44
59.043982
 45
-36.77011830712541
 46
36.77011830712542
 79
     4
 49
60.0
 49
-29.2512
 49
37.5
 49
-29.2512
 53
45.0
 43
42.457585
 44
72.65607
 45
-36.77011830712541
 46
36.77011830712542
 79
     4
 49
31.5
 49
-29.2488
 49
66.0
 49
-29.2488
 53
45.0
 43
26.900671
 44
88.212985
 45
-36.77011830712541
 46
36.77011830712542
 79
     4
 49
31.5
 49
-29.2488
 49
66.0
 49
-29.2488
 53
45.0
 43
13.288582
 44
81.670833
 45
-36.77011830712541
 46
36.77011830712542
 79
     4
 49
60.0
 49
-29.2512
 49
37.5
 49
-29.2512
 53
63.43
 43
-7.39514
 44
60.987111
 45
-36.76100042591992
 46
36.7845257944902
 79
     2
 49
17.3928
 49
-147.0456
 53
63.43
 43
6.216949
 44
67.529263
 45
-36.76636791610095
 46
36.77379313176576
 79
     2
 49
15.8112
 49
-148.6272
 53
63.43
 43
17.709414
 44
69.827077
 45
-36.76636791610095
 46
36.77379313176576
 79
     2
 49
20.556
 49
-143.8848
 53
63.43
 43
64.729752
 44
94.928237
 45
-36.76636791610095
 46
36.77379313176576
 79
     2
 49
20.556
 49
-143.8848
 53
63.43
 43
78.34184
 44
101.470389
 45
-36.76636791610095
 46
36.77379313176576
 79
     2
 49
15.8112
 49
-148.6272
 53
63.43
 43
91.247953
 44
106.597196
 45
-36.76636791610095
 46
36.77379313176576
 79
     2
 49
17.3928
 49
-147.0456
 53
26.57
 43
15.231712
 44
38.36026
 45
110.2980307137942
 46
110.3181593647161
 79
     2
 49
17.3928
 49
-147.0456
 53
26.57
 43
21.773864
 44
51.972348
 45
110.2980307137942
 46
110.3181593647161
 79
     2
 49
15.8112
 49
-148.6272
 53
26.57
 43
24.071678
 44
63.461419
 45
110.2980307137942
 46
110.3181593647161
 79
     2
 49
20.556
 49
-143.8848
 53
26.57
 43
49.172837
 44
110.485152
 45
110.2980307137942
 46
110.3181593647161
 79
     2
 49
20.556
 49
-143.8848
 53
26.57
 43
55.714989
 44
124.09724
 45
110.2980307137942
 46
110.3181593647161
 79
     2
 49
15.8112
 49
-148.6272
 53
26.57
 43
60.841796
 44
137.003353
 45
110.2980307137942
 46
110.3181593647161
 79
     2
 49
17.3928
 49
-147.0456
 47
0.205803
 98
       15
 10
4829.68901
 20
853.718358
 10
4829.071134
 20
846.309475
 10
4830.51282
 20
844.457246
 10
4830.718791
 20
838.488969
 10
4829.894981
 20
830.874267
 10
4830.100915
 20
823.465368
 10
4833.190257
 20
823.25958
 10
4833.190257
 20
828.610447
 10
4833.396191
 20
836.225134
 10
4833.602162
 20
843.016624
 10
4833.602162
 20
849.60231
 10
4852.344037
 20
845.486262
 10
4889.209986
 20
842.399214
 10
4916.807946
 20
842.605017
 10
4955.733457
 20
843.016624
  0
LINE
  5
58
100
AcDbEntity
  8
CO3
100
AcDbLine
 10
4872.588358
 20
816.015449
 30
0.0
 11
4828.428618
 21
816.015449
 31
0.0
  0
LINE
  5
59
100
AcDbEntity
  8
CO3
100
AcDbLine
 10
4872.588358
 20
818.424394
 30
0.0
 11
4830.431602
 21
816.015449
 31
0.0
  0
LINE
  5
5A
100
AcDbEntity
  8
CO3
100
AcDbLine
 10
4872.588358
 20
809.015449
 30
0.0
 11
4830.431602
 21
809.015449
 31
0.0
  0
LINE
  5
5B
100
AcDbEntity
  8
CO3
100
AcDbLine
 10
4828.428618
 20
822.015449
 30
0.0
 11
4872.588358
 21
822.015449
 31
0.0
  0
LINE
  5
5C
100
AcDbEntity
  8
CO3
100
AcDbLine
 10
4825.637406
 20
820.015449
 30
0.0
 11
4872.588358
 21
820.015449
 31
0.0
  0
LINE
  5
5D
100
AcDbEntity
  8
CO3
100
AcDbLine
 10
4825.637406
 20
856.015449
 30
0.0
 11
4970.42898
 21
856.015449
 31
0.0
  0
LINE
  5
5E
100
AcDbEntity
  8
CO2
100
AcDbLine
 10
4832.779726
 20
856.015449
 30
0.0
 11
4832.779726
 21
822.015449
 31
0.0
  0
LINE
  5
5F
100
AcDbEntity
  8
CO2
100
AcDbLine
 10
4837.029726
 20
856.015449
 30
0.0
 11
4837.029726
 21
822.015449
 31
0.0
  0
LINE
  5
60
100
AcDbEntity
  8
CO253
100
AcDbLine
 10
4837.029726
 20
824.845122
 30
0.0
 11
4828.428618
 21
824.845122
 31
0.0
  0
LINE
  5
61
100
AcDbEntity
  8
CO253
100
AcDbLine
 10
4837.029726
 20
832.845122
 30
0.0
 11
4828.428618
 21
832.845122
 31
0.0
  0
LINE
  5
62
100
AcDbEntity
  8
CO253
100
AcDbLine
 10
4837.029726
 20
840.845122
 30
0.0
 11
4828.428618
 21
840.845122
 31
0.0
  0
LINE
  5
63
100
AcDbEntity
  8
CO253
100
AcDbLine
 10
4837.029726
 20
848.845122
 30
0.0
 11
4828.428618
 21
848.845122
 31
0.0
  0
LINE
  5
64
100
AcDbEntity
  8
CO3
100
AcDbLine
 10
4830.431602
 20
816.015449
 30
0.0
 11
4830.581227
 21
809.007968
 31
0.0
  0
LINE
  5
65
100
AcDbEntity
  8
CO3
100
AcDbLine
 10
4948.763541
 20
820.015449
 30
0.0
 11
4970.42898
 21
820.015449
 31
0.0
  0
LINE
  5
66
100
AcDbEntity
  8
CO3
100
AcDbLine
 10
4948.763541
 20
822.015449
 30
0.0
 11
4967.637768
 21
822.015449
 31
0.0
  0
LINE
  5
67
100
AcDbEntity
  8
CO3
100
AcDbLine
 10
4875.37957
 20
820.015449
 30
0.0
 11
4945.972329
 21
820.015449
 31
0.0
  0
LINE
  5
68
100
AcDbEntity
  8
CO3
100
AcDbLine
 10
4875.37957
 20
822.015449
 30
0.0
 11
4945.972329
 21
822.015449
 31
0.0
  0
ARC
  5
69
100
AcDbEntity
  8
CO2
  6
HIDDEN2
100
AcDbCircle
 10
4915.067236
 20
740.015449
 30
0.0
 40
57.135217
100
AcDbArc
 50
331.842624
 51
0.037976
  0
LINE
  5
6B
100
AcDbEntity
  8
CO253
100
AcDbLine
 10
4953.192387
 20
728.345
 30
0.0
 11
4953.192387
 21
708.66
 31
0.0
  0
LWPOLYLINE
  5
6C
100
AcDbEntity
  8
CO2
  6
HIDDEN2
100
AcDbPolyline
 90
        2
 70
     0
 43
0.0
 10
4944.096311
 20
713.053626
 10
4926.602988
 20
713.053626
  0
ARC
  5
6D
100
AcDbEntity
  8
CO2
  6
HIDDEN2
100
AcDbCircle
 10
4976.976524
 20
740.015449
 30
0.0
 40
57.135217
100
AcDbArc
 50
179.962024
 51
208.157376
  0
HATCH
  5
6E
100
AcDbEntity
  8
CO253
100
AcDbHatch
 10
0.0
 20
0.0
 30
0.0
210
0.0
220
0.0
230
1.0
  2
ANSI31
 70
     0
 71
     0
 91
        3
 92
        7
 72
     0
 73
     1
 93
        4
 10
4967.521879766085
 20
740.0154493419125
 10
4922.521879766086
 20
740.0154493419125
 10
4922.521879766086
 20
710.0154493419122
 10
4967.521879766085
 20
710.0154493419122
 97
        0
 92
        7
 72
     0
 73
     1
 93
        4
 10
4922.521879766086
 20
710.0154493419122
 10
4922.521879766086
 20
706.410265691451
 10
4967.521879766085
 20
706.4102656914506
 10
4967.521879766085
 20
710.0154493419122
 97
        0
 92
       24
 93
        4
 72
     1
 10
4928.581308
 20
732.823624
 11
4955.193377
 21
732.823624
 72
     1
 10
4955.193377
 20
732.823624
 11
4955.193377
 21
711.073624
 72
     1
 10
4955.193377
 20
711.073624
 11
4928.581308
 21
711.073624
 72
     1
 10
4928.581308
 20
711.073624
 11
4928.581308
 21
732.823624
 97
        0
 75
     0
 76
     1
 52
135.0
 41
157.48
 77
     0
 78
     1
 53
180.0
 43
1173.672387
 44
0.0
 45
-0.0000000000000036
 46
-19.68499999999999
 79
     0
 47
0.198732
 98
        2
 10
4962.884187
 20
721.746773
 10
4946.774439
 20
708.431727
  0
LINE
  5
6F
100
AcDbEntity
  8
CO2
  6
HIDDEN2
100
AcDbLine
 10
4921.441307
 20
740.015449
 30
0.0
 11
4970.602453
 21
740.015449
 31
0.0
  0
LWPOLYLINE
  5
70
100
AcDbEntity
  8
CO2
  6
HIDDEN2
100
AcDbPolyline
 90
        2
 70
     0
 43
0.0
 10
4965.440771
 20
713.053626
 10
4947.296311
 20
713.053626
  0
LINE
  5
71
100
AcDbEntity
  8
CO3
100
AcDbLine
 10
4945.972329
 20
816.015449
 30
0.0
 11
4875.37957
 21
816.015449
 31
0.0
  0
LINE
  5
72
100
AcDbEntity
  8
CO3
100
AcDbLine
 10
4967.637768
 20
816.015449
 30
0.0
 11
4948.763541
 21
816.015449
 31
0.0
  0
LINE
  5
73
100
AcDbEntity
  8
CO3
100
AcDbLine
 10
4900.431965
 20
820.015449
 30
0.0
 11
4875.37957
 21
818.583891
 31
0.0
  0
LINE
  5
74
100
AcDbEntity
  8
CO3
100
AcDbLine
 10
4967.637768
 20
809.015449
 30
0.0
 11
4948.763541
 21
809.015449
 31
0.0
  0
LINE
  5
75
100
AcDbEntity
  8
CO3
100
AcDbLine
 10
4945.972329
 20
809.015449
 30
0.0
 11
4875.37957
 21
809.015449
 31
0.0
  0
LINE
  5
76
100
AcDbEntity
  8
CO3
100
AcDbLine
 10
4972.431965
 20
809.015449
 30
0.0
 11
4970.42898
 21
809.015449
 31
0.0
  0
LINE
  5
77
100
AcDbEntity
  8
CO2
100
AcDbLine
 10
4890.431965
 20
772.015449
 30
0.0
 11
4890.431965
 21
775.420531
 31
0.0
  0
LINE
  5
78
100
AcDbEntity
  8
CO2
100
AcDbLine
 10
4890.431965
 20
775.420531
 30
0.0
 11
4890.431965
 21
809.015449
 31
0.0
  0
LWPOLYLINE
  5
79
100
AcDbEntity
  8
CO2
100
AcDbPolyline
 90
        4
 70
     0
 43
0.0
 10
5020.431965
 20
703.949222
 10
5011.503352
 20
702.703784
 10
4972.431965
 20
724.015449
 10
4908.006948
 20
748.015449
  0
ARC
  5
7A
100
AcDbEntity
  8
CO2
100
AcDbCircle
 10
4921.804146
 20
776.554014
 30
0.0
 40
31.698775
100
AcDbArc
 50
188.23178
 51
244.198183
  0
ARC
  5
7B
100
AcDbEntity
  8
CO2
100
AcDbCircle
 10
4846.700372
 20
704.70224
 30
0.0
 40
91.976577
100
AcDbArc
 50
61.528377
 51
87.884465
  0
LINE
  5
7C
100
AcDbEntity
  8
CO2
100
AcDbLine
 10
4900.431965
 20
822.015449
 30
0.0
 11
4900.431965
 21
856.015449
 31
0.0
  0
LINE
  5
7D
100
AcDbEntity
  8
CO3
100
AcDbLine
 10
4972.431965
 20
816.015449
 30
0.0
 11
4970.42898
 21
816.015449
 31
0.0
  0
LINE
  5
7E
100
AcDbEntity
  8
CO2
100
AcDbLine
 10
4900.431965
 20
855.95717
 30
0.0
 11
4900.431965
 21
856.015449
 31
0.0
  0
LINE
  5
7F
100
AcDbEntity
  8
CO3
100
AcDbLine
 10
4825.637406
 20
858.015449
 30
0.0
 11
4967.637768
 21
858.015449
 31
0.0
  0
LINE
  5
80
100
AcDbEntity
  8
CO4
100
AcDbLine
 10
4972.431965
 20
935.14545
 30
0.0
 11
4969.845961
 21
935.14545
 31
0.0
  0
LINE
  5
81
100
AcDbEntity
  8
CO4
100
AcDbLine
 10
4969.845961
 20
941.14545
 30
0.0
 11
4969.845961
 21
935.14545
 31
0.0
  0
LINE
  5
82
100
AcDbEntity
  8
CO2
100
AcDbLine
 10
4900.431965
 20
858.015449
 30
0.0
 11
4900.431965
 21
950.14545
 31
0.0
  0
LINE
  5
83
100
AcDbEntity
  8
CO2
100
AcDbLine
 10
4943.435877
 20
941.14545
 30
0.0
 11
4969.845961
 21
941.14545
 31
0.0
  0
LINE
  5
84
100
AcDbEntity
  8
CO2
100
AcDbLine
 10
4969.845961
 20
935.14545
 30
0.0
 11
4943.435877
 21
935.14545
 31
0.0
  0
LINE
  5
85
100
AcDbEntity
  8
CO2
100
AcDbLine
 10
4943.435877
 20
941.14545
 30
0.0
 11
4943.435877
 21
935.14545
 31
0.0
  0
LINE
  5
86
100
AcDbEntity
  8
CO2
100
AcDbLine
 10
4948.547057
 20
935.14545
 30
0.0
 11
4948.547057
 21
922.015449
 31
0.0
  0
LINE
  5
87
100
AcDbEntity
  8
CO2
100
AcDbLine
 10
4948.547057
 20
922.015449
 30
0.0
 11
4972.431965
 21
922.015449
 31
0.0
  0
HATCH
  5
88
100
AcDbEntity
  8
CO253
100
AcDbHatch
 10
0.0
 20
0.0
 30
0.0
210
0.0
220
0.0
230
1.0
  2
ZIGZAG
 70
     0
 71
     1
 91
       21
 92
        7
 72
     0
 73
     1
 93
        4
 10
4944.140709309002
 20
966.1454502379783
 10
4952.953404357865
 20
966.1454502379783
 10
4948.810729855317
 20
996.8573644330916
 10
4948.283383811553
 20
996.8573644330916
 97
        4
330
90
330
AA
330
BB
330
97
 92
        7
 72
     0
 73
     1
 93
        4
 10
4899.547056833403
 20
966.1454502379783
 10
4901.61269608853
 20
966.1454502379783
 10
4945.738534659927
 20
996.8573644330916
 10
4945.614928126071
 20
996.8573644330916
 97
        4
330
90
330
BA
330
BB
330
B8
 92
        7
 72
     0
 73
     1
 93
        4
 10
4901.612696088529
 20
966.1454502379781
 10
4903.886949644803
 20
966.1454502379781
 10
4945.874624540339
 20
996.8573644330914
 10
4945.738534659929
 20
996.8573644330914
 97
        4
330
90
330
B8
330
BB
330
B6
 92
        7
 72
     0
 73
     1
 93
        4
 10
4903.886949644804
 20
966.1454502379783
 10
4906.843411102557
 20
966.1454502379783
 10
4946.051537305899
 20
996.8573644330916
 10
4945.874624540341
 20
996.8573644330918
 97
        4
330
90
330
B6
330
BB
330
B4
 92
        7
 72
     0
 73
     1
 93
        4
 10
4906.843411102556
 20
966.1454502379783
 10
4909.117664658833
 20
966.1454502379783
 10
4946.18762718631
 20
996.8573644330916
 10
4946.051537305899
 20
996.8573644330916
 97
        4
330
90
330
B4
330
BB
330
B2
 92
        7
 72
     0
 73
     1
 93
        4
 10
4946.418976413903
 20
996.8573644330916
 10
4946.187627186311
 20
996.8573644330916
 10
4909.117664658833
 20
966.1454502379783
 10
4912.983836059769
 20
966.1454502379783
 97
        4
330
90
330
B2
330
BB
330
B0
 92
        7
 72
     0
 73
     1
 93
        4
 10
4917.460391182113
 20
966.1454502379784
 10
4946.686850613584
 20
996.8573644330918
 10
4946.418976413903
 20
996.8573644330918
 10
4912.983836059769
 20
966.1454502379783
 97
        4
330
90
330
B0
330
BB
330
AF
 92
        7
 72
     0
 73
     1
 93
        4
 10
4946.963328287468
 20
996.8573644330918
 10
4946.686850613584
 20
996.8573644330918
 10
4917.460391182113
 20
966.1454502379783
 10
4922.080722474744
 20
966.1454502379786
 97
        4
330
90
330
AF
330
BB
330
A9
 92
        7
 72
     0
 73
     1
 93
        4
 10
4922.080722474746
 20
966.1454502379783
 10
4928.448564266908
 20
966.1454502379784
 10
4947.344375873645
 20
996.8573644330918
 10
4946.963328287467
 20
996.8573644330916
 97
        4
330
90
330
A9
330
BB
330
AD
 92
        7
 72
     0
 73
     1
 93
        4
 10
4935.498656563932
 20
966.1454502379783
 10
4947.766248894326
 20
996.8573644330916
 10
4947.344375873645
 20
996.8573644330918
 10
4928.448564266907
 20
966.1454502379783
 97
        4
330
90
330
AD
330
BB
330
AB
 92
        7
 72
     0
 73
     1
 93
        4
 10
4944.140709309002
 20
966.1454502379783
 10
4948.283383811553
 20
996.8573644330916
 10
4947.766248894325
 20
996.8573644330916
 10
4935.498656563933
 20
966.1454502379784
 97
        4
330
90
330
AB
330
BB
330
AA
 92
        7
 72
     0
 73
     1
 93
        4
 10
4961.595457102934
 20
966.1454502379783
 10
4949.327864772543
 20
996.8573644330916
 10
4948.810729855316
 20
996.8573644330916
 10
4952.953404357867
 20
966.1454502379783
 97
        4
330
90
330
97
330
BB
330
98
 92
        7
 72
     0
 73
     1
 93
        4
 10
4961.595457102935
 20
966.1454502379783
 10
4968.645549399961
 20
966.1454502379783
 10
4949.749737793224
 20
996.8573644330916
 10
4949.327864772543
 20
996.8573644330918
 97
        4
330
90
330
98
330
BB
330
9A
 92
        7
 72
     0
 73
     1
 93
        4
 10
4968.645549399961
 20
966.1454502379783
 10
4975.013391192123
 20
966.1454502379781
 10
4950.1307853794
 20
996.8573644330914
 10
4949.749737793226
 20
996.8573644330914
 97
        4
330
90
330
9A
330
BB
330
96
 92
        7
 72
     0
 73
     1
 93
        4
 10
4950.407263053285
 20
996.8573644330914
 10
4950.1307853794
 20
996.8573644330916
 10
4975.013391192123
 20
966.1454502379783
 10
4979.633722484755
 20
966.1454502379781
 97
        4
330
90
330
96
330
BB
330
9C
 92
        7
 72
     0
 73
     1
 93
        4
 10
4979.633722484755
 20
966.1454502379781
 10
4984.110277607098
 20
966.1454502379783
 10
4950.675137252965
 20
996.8573644330916
 10
4950.407263053284
 20
996.8573644330916
 97
        4
330
90
330
9C
330
BB
330
9D
 92
        7
 72
     0
 73
     1
 93
        4
 10
4984.110277607098
 20
966.1454502379783
 10
4987.976449008036
 20
966.1454502379783
 10
4950.906486480558
 20
996.8573644330916
 10
4950.675137252965
 20
996.8573644330914
 97
        4
330
90
330
9D
330
BB
330
9F
 92
        7
 72
     0
 73
     1
 93
        4
 10
4951.04257636097
 20
996.8573644330918
 10
4950.906486480558
 20
996.8573644330918
 10
4987.976449008037
 20
966.1454502379783
 10
4990.250702564311
 20
966.1454502379783
 97
        4
330
90
330
9F
330
BB
330
A1
 92
        7
 72
     0
 73
     1
 93
        4
 10
4951.219489126528
 20
996.8573644330914
 10
4951.04257636097
 20
996.8573644330914
 10
4990.250702564312
 20
966.1454502379783
 10
4993.207164022065
 20
966.1454502379783
 97
        4
330
90
330
A1
330
BB
330
A3
 92
        7
 72
     0
 73
     1
 93
        4
 10
4993.207164022065
 20
966.1454502379781
 10
4995.481417578341
 20
966.1454502379783
 10
4951.355579006939
 20
996.8573644330916
 10
4951.219489126527
 20
996.8573644330916
 97
        4
330
90
330
A3
330
BB
330
A5
 92
        7
 72
     0
 73
     1
 93
        4
 10
4995.48141757834
 20
966.1454502379781
 10
4997.547056833465
 20
966.1454502379783
 10
4951.479185540796
 20
996.8573644330918
 10
4951.35557900694
 20
996.8573644330916
 97
        4
330
90
330
A5
330
BB
330
95
 75
     0
 76
     1
 52
135.0
 41
16.0
 77
     0
 78
     2
 53
135.0
 43
0.0
 44
0.0
 45
-2.828427124746189
 46
0.0000000000000002
 79
     2
 49
2.0
 49
-2.0
 53
225.0
 43
-1.414214
 44
1.414214
 45
-0.0000000000000004
 46
-2.828427124746189
 79
     2
 49
2.0
 49
-2.0
 47
0.097136
 98
       21
 10
4947.552729
 20
976.244106
 10
4906.433664
 20
970.221659
 10
4907.016958
 20
969.44456
 10
4908.280666
 20
968.667462
 10
4910.030356
 20
967.987507
 10
4912.752203
 20
967.113291
 10
4916.640511
 20
967.307553
 10
4922.764682
 20
967.696102
 10
4925.972512
 20
968.278913
 10
4932.291051
 20
968.278913
 10
4939.678867
 20
968.4732
 10
4955.426592
 20
968.958867
 10
4961.842378
 20
969.347416
 10
4968.452533
 20
970.610208
 10
4971.952041
 20
972.35864
 10
4974.285026
 20
973.427144
 10
4976.61801
 20
973.815693
 10
4978.853811
 20
974.398503
 10
4979.728656
 20
975.272746
 10
4980.117519
 20
976.049818
 10
4980.506317
 20
976.92406
  0
LINE
  5
89
100
AcDbEntity
  8
CO2
100
AcDbLine
 10
4899.547057
 20
963.993613
 30
0.0
 11
4901.431965
 21
964.015015
 31
0.0
  0
LINE
  5
8A
100
AcDbEntity
  8
CO2
100
AcDbLine
 10
4899.547057
 20
963.993613
 30
0.0
 11
4899.547057
 21
966.14545
 31
0.0
  0
LINE
  5
8B
100
AcDbEntity
  8
CO2
100
AcDbLine
 10
4901.431965
 20
964.015015
 30
0.0
 11
4901.431965
 21
952.14545
 31
0.0
  0
LWPOLYLINE
  5
8C
100
AcDbEntity
  8
CO2
100
AcDbPolyline
 90
        4
 70
     0
 43
0.0
 10
4901.431965
 20
952.14545
 10
4899.431965
 20
952.14545
 10
4899.431965
 20
950.14545
 10
4900.431965
 20
950.140015
  0
LWPOLYLINE
  5
8D
100
AcDbEntity
  8
CO2
100
AcDbPolyline
 90
        4
 70
     0
 43
0.0
 10
4995.662149
 20
952.14545
 10
4997.662149
 20
952.14545
 10
4997.662149
 20
950.14545
 10
4996.662149
 20
950.140015
  0
LINE
  5
8E
100
AcDbEntity
  8
CO2
100
AcDbLine
 10
4995.662149
 20
964.015015
 30
0.0
 11
4995.662149
 21
952.14545
 31
0.0
  0
LWPOLYLINE
  5
8F
100
AcDbEntity
  8
CO2
100
AcDbPolyline
 90
        4
 70
     0
 43
0.0
 10
4900.431965
 20
925.015449
 10
4894.431965
 20
925.015449
 10
4894.431965
 20
919.015449
 10
4900.431965
 20
919.015449
  0
LINE
  5
90
102
{ACAD_REACTORS
330
88
102
}
100
AcDbEntity
  8
CO2
100
AcDbLine
 10
4945.614928
 20
996.857364
 30
0.0
 11
4951.479186
 21
996.857364
 31
0.0
  0
ARC
  5
91
100
AcDbEntity
  8
CO2
100
AcDbCircle
 10
4948.547057
 20
1001.259261
 30
0.0
 40
4.0
100
AcDbArc
 50
295.710248
 51
244.289752
  0
LINE
  5
92
100
AcDbEntity
  8
CO2
100
AcDbLine
 10
4950.282338
 20
997.655263
 30
0.0
 11
4946.811776
 21
997.655263
 31
0.0
  0
LINE
  5
93
100
AcDbEntity
  8
CO1
100
AcDbLine
 10
4996.662149
 20
950.14545
 30
0.0
 11
4900.431965
 21
950.14545
 31
0.0
  0
LINE
  5
94
100
AcDbEntity
  8
CO1
100
AcDbLine
 10
4996.662149
 20
952.14545
 30
0.0
 11
4900.431965
 21
952.14545
 31
0.0
  0
LINE
  5
95
102
{ACAD_REACTORS
330
88
102
}
100
AcDbEntity
  8
CO2
100
AcDbLine
 10
4997.547057
 20
966.14545
 30
0.0
 11
4950.282338
 21
997.655263
 31
0.0
  0
LINE
  5
96
102
{ACAD_REACTORS
330
88
102
}
100
AcDbEntity
  8
CO253
100
AcDbLine
 10
4950.130785
 20
996.857364
 30
0.0
 11
4975.013391
 21
966.14545
 31
0.0
  0
LINE
  5
97
102
{ACAD_REACTORS
330
88
102
}
100
AcDbEntity
  8
CO253
100
AcDbLine
 10
4952.953404
 20
966.14545
 30
0.0
 11
4948.81073
 21
996.857364
 31
0.0
  0
LINE
  5
98
102
{ACAD_REACTORS
330
88
102
}
100
AcDbEntity
  8
CO253
100
AcDbLine
 10
4949.327865
 20
996.857364
 30
0.0
 11
4961.595457
 21
966.14545
 31
0.0
  0
LINE
  5
99
100
AcDbEntity
  8
CO253
100
AcDbLine
 10
4961.595457
 20
966.14545
 30
0.0
 11
4949.327865
 21
996.857364
 31
0.0
  0
LINE
  5
9A
102
{ACAD_REACTORS
330
88
102
}
100
AcDbEntity
  8
CO253
100
AcDbLine
 10
4949.749738
 20
996.857364
 30
0.0
 11
4968.645549
 21
966.14545
 31
0.0
  0
LINE
  5
9B
100
AcDbEntity
  8
CO253
100
AcDbLine
 10
4968.645549
 20
966.14545
 30
0.0
 11
4949.749738
 21
996.857364
 31
0.0
  0
LINE
  5
9C
102
{ACAD_REACTORS
330
88
102
}
100
AcDbEntity
  8
CO253
100
AcDbLine
 10
4979.633722
 20
966.14545
 30
0.0
 11
4950.407263
 21
996.857364
 31
0.0
  0
LINE
  5
9D
102
{ACAD_REACTORS
330
88
102
}
100
AcDbEntity
  8
CO253
100
AcDbLine
 10
4950.675137
 20
996.857364
 30
0.0
 11
4984.110278
 21
966.14545
 31
0.0
  0
LINE
  5
9E
100
AcDbEntity
  8
CO253
100
AcDbLine
 10
4984.110278
 20
966.14545
 30
0.0
 11
4950.675137
 21
996.857364
 31
0.0
  0
LINE
  5
9F
102
{ACAD_REACTORS
330
88
102
}
100
AcDbEntity
  8
CO253
100
AcDbLine
 10
4950.906486
 20
996.857364
 30
0.0
 11
4987.976449
 21
966.14545
 31
0.0
  0
LINE
  5
A0
100
AcDbEntity
  8
CO253
100
AcDbLine
 10
4987.976449
 20
966.14545
 30
0.0
 11
4950.906486
 21
996.857364
 31
0.0
  0
LINE
  5
A1
102
{ACAD_REACTORS
330
88
102
}
100
AcDbEntity
  8
CO253
100
AcDbLine
 10
4951.042576
 20
996.857364
 30
0.0
 11
4990.250703
 21
966.14545
 31
0.0
  0
LINE
  5
A2
100
AcDbEntity
  8
CO253
100
AcDbLine
 10
4990.250703
 20
966.14545
 30
0.0
 11
4951.042576
 21
996.857364
 31
0.0
  0
LINE
  5
A3
102
{ACAD_REACTORS
330
88
102
}
100
AcDbEntity
  8
CO253
100
AcDbLine
 10
4951.219489
 20
996.857364
 30
0.0
 11
4993.207164
 21
966.14545
 31
0.0
  0
LINE
  5
A4
100
AcDbEntity
  8
CO253
100
AcDbLine
 10
4993.207164
 20
966.14545
 30
0.0
 11
4951.219489
 21
996.857364
 31
0.0
  0
LINE
  5
A5
102
{ACAD_REACTORS
330
88
102
}
100
AcDbEntity
  8
CO253
100
AcDbLine
 10
4951.355579
 20
996.857364
 30
0.0
 11
4995.481418
 21
966.14545
 31
0.0
  0
LINE
  5
A6
100
AcDbEntity
  8
CO2
100
AcDbLine
 10
4997.547057
 20
963.993613
 30
0.0
 11
4997.547057
 21
966.14545
 31
0.0
  0
LINE
  5
A7
100
AcDbEntity
  8
CO2
100
AcDbLine
 10
4997.547057
 20
963.993613
 30
0.0
 11
4995.662149
 21
964.015015
 31
0.0
  0
LINE
  5
A8
100
AcDbEntity
  8
CO2
100
AcDbLine
 10
4996.662149
 20
941.748407
 30
0.0
 11
4996.662149
 21
950.14545
 31
0.0
  0
LINE
  5
A9
102
{ACAD_REACTORS
330
88
102
}
100
AcDbEntity
  8
CO253
100
AcDbLine
 10
4946.963328
 20
996.857364
 30
0.0
 11
4922.080722
 21
966.14545
 31
0.0
  0
LINE
  5
AA
102
{ACAD_REACTORS
330
88
102
}
100
AcDbEntity
  8
CO253
100
AcDbLine
 10
4944.140709
 20
966.14545
 30
0.0
 11
4948.283384
 21
996.857364
 31
0.0
  0
LINE
  5
AB
102
{ACAD_REACTORS
330
88
102
}
100
AcDbEntity
  8
CO253
100
AcDbLine
 10
4947.766249
 20
996.857364
 30
0.0
 11
4935.498657
 21
966.14545
 31
0.0
  0
LINE
  5
AC
100
AcDbEntity
  8
CO253
100
AcDbLine
 10
4935.498657
 20
966.14545
 30
0.0
 11
4947.766249
 21
996.857364
 31
0.0
  0
LINE
  5
AD
102
{ACAD_REACTORS
330
88
102
}
100
AcDbEntity
  8
CO253
100
AcDbLine
 10
4947.344376
 20
996.857364
 30
0.0
 11
4928.448564
 21
966.14545
 31
0.0
  0
LINE
  5
AE
100
AcDbEntity
  8
CO253
100
AcDbLine
 10
4928.448564
 20
966.14545
 30
0.0
 11
4947.344376
 21
996.857364
 31
0.0
  0
LINE
  5
AF
102
{ACAD_REACTORS
330
88
102
}
100
AcDbEntity
  8
CO253
100
AcDbLine
 10
4917.460391
 20
966.14545
 30
0.0
 11
4946.686851
 21
996.857364
 31
0.0
  0
LINE
  5
B0
102
{ACAD_REACTORS
330
88
102
}
100
AcDbEntity
  8
CO253
100
AcDbLine
 10
4946.418976
 20
996.857364
 30
0.0
 11
4912.983836
 21
966.14545
 31
0.0
  0
LINE
  5
B1
100
AcDbEntity
  8
CO253
100
AcDbLine
 10
4912.983836
 20
966.14545
 30
0.0
 11
4946.418976
 21
996.857364
 31
0.0
  0
LINE
  5
B2
102
{ACAD_REACTORS
330
88
102
}
100
AcDbEntity
  8
CO253
100
AcDbLine
 10
4946.187627
 20
996.857364
 30
0.0
 11
4909.117665
 21
966.14545
 31
0.0
  0
LINE
  5
B3
100
AcDbEntity
  8
CO253
100
AcDbLine
 10
4909.117665
 20
966.14545
 30
0.0
 11
4946.187627
 21
996.857364
 31
0.0
  0
LINE
  5
B4
102
{ACAD_REACTORS
330
88
102
}
100
AcDbEntity
  8
CO253
100
AcDbLine
 10
4946.051537
 20
996.857364
 30
0.0
 11
4906.843411
 21
966.14545
 31
0.0
  0
LINE
  5
B5
100
AcDbEntity
  8
CO253
100
AcDbLine
 10
4906.843411
 20
966.14545
 30
0.0
 11
4946.051537
 21
996.857364
 31
0.0
  0
LINE
  5
B6
102
{ACAD_REACTORS
330
88
102
}
100
AcDbEntity
  8
CO253
100
AcDbLine
 10
4945.874625
 20
996.857364
 30
0.0
 11
4903.88695
 21
966.14545
 31
0.0
  0
LINE
  5
B7
100
AcDbEntity
  8
CO253
100
AcDbLine
 10
4903.88695
 20
966.14545
 30
0.0
 11
4945.874625
 21
996.857364
 31
0.0
  0
LINE
  5
B8
102
{ACAD_REACTORS
330
88
102
}
100
AcDbEntity
  8
CO253
100
AcDbLine
 10
4945.738535
 20
996.857364
 30
0.0
 11
4901.612696
 21
966.14545
 31
0.0
  0
LINE
  5
B9
100
AcDbEntity
  8
CO2
100
AcDbLine
 10
4899.547057
 20
963.993613
 30
0.0
 11
4900.431965
 21
963.993613
 31
0.0
  0
LINE
  5
BA
102
{ACAD_REACTORS
330
88
102
}
100
AcDbEntity
  8
CO2
100
AcDbLine
 10
4899.547057
 20
966.14545
 30
0.0
 11
4946.811776
 21
997.655263
 31
0.0
  0
LINE
  5
BB
102
{ACAD_REACTORS
330
88
102
}
100
AcDbEntity
  8
CO2
100
AcDbLine
 10
4997.547057
 20
966.14545
 30
0.0
 11
4899.547057
 21
966.14545
 31
0.0
  0
LINE
  5
BC
100
AcDbEntity
  8
CO2
100
AcDbLine
 10
4899.547057
 20
963.993613
 30
0.0
 11
4899.547057
 21
966.14545
 31
0.0
  0
LINE
  5
BD
100
AcDbEntity
  8
CO1
100
AcDbLine
 10
4901.431965
 20
964.015015
 30
0.0
 11
4995.662149
 21
964.015015
 31
0.0
  0
LWPOLYLINE
  5
BE
100
AcDbEntity
  8
CO2
100
AcDbPolyline
 90
        4
 70
     1
 43
0.0
 10
4919.228838
 20
895.515449
 10
4913.228838
 20
895.515449
 10
4913.228838
 20
924.515449
 10
4919.228838
 20
924.515449
  0
LWPOLYLINE
  5
BF
100
AcDbEntity
  8
CO2
100
AcDbPolyline
 90
        4
 70
     1
 43
0.0
 10
4920.728838
 20
893.015449
 10
4911.728838
 20
893.015449
 10
4911.728838
 20
927.015449
 10
4920.728838
 20
927.015449
  0
LWPOLYLINE
  5
C0
100
AcDbEntity
  8
CO2
100
AcDbPolyline
 90
        4
 70
     0
 43
0.0
 10
4908.728838
 20
886.015449
 10
4908.728838
 20
892.015449
 10
4908.728838
 20
928.015449
 10
4919.728838
 20
928.015449
  0
LWPOLYLINE
  5
C1
100
AcDbEntity
  8
CO2
100
AcDbPolyline
 90
        4
 70
     1
 43
0.0
 10
4921.728838
 20
892.015449
 10
4908.728838
 20
892.015449
 10
4908.728838
 20
928.015449
 10
4921.728838
 20
928.015449
  0
LWPOLYLINE
  5
C2
100
AcDbEntity
  8
CO3
100
AcDbPolyline
 90
        4
 70
     1
 43
0.0
 10
4921.728838
 20
892.015449
 10
4908.728838
 20
892.015449
 10
4908.728838
 20
886.015449
 10
4921.728838
 20
886.015449
  0
LINE
  5
C3
100
AcDbEntity
  8
CO2
100
AcDbLine
 10
5408.345628
 20
935.046623
 30
0.0
 11
5408.345628
 21
723.750705
 31
0.0
  0
LINE
  5
C4
100
AcDbEntity
  8
CO2
100
AcDbLine
 10
5405.346295
 20
934.983408
 30
0.0
 11
5405.346295
 21
723.687491
 31
0.0
  0
LINE
  5
C5
100
AcDbEntity
  8
CO3
100
AcDbLine
 10
5572.431965
 20
806.015449
 30
0.0
 11
5572.431965
 21
860.015449
 31
0.0
  0
HATCH
  5
C6
100
AcDbEntity
  8
CO1
100
AcDbHatch
 10
0.0
 20
0.0
 30
0.0
210
0.0
220
0.0
230
1.0
  2
WOOD07
 70
     0
 71
     0
 91
        3
 92
        7
 72
     0
 73
     1
 93
        5
 10
5460.431964731859
 20
822.0154493419144
 10
5460.43196473186
 20
860.0154493419127
 10
5408.451202618326
 20
860.0154493419129
 10
5408.43196473186
 20
859.9436525721925
 10
5408.43196473186
 20
822.0154493419144
 97
        0
 92
        7
 72
     0
 73
     1
 93
        4
 10
5516.431964731859
 20
822.0154493419144
 10
5516.431964731859
 20
860.0154493419124
 10
5464.431964731861
 20
860.0154493419125
 10
5464.431964731861
 20
822.0154493419144
 97
        0
 92
        7
 72
     0
 73
     1
 93
        4
 10
5572.431964731867
 20
822.0154493419144
 10
5572.431964731867
 20
860.0154493419125
 10
5520.43196473186
 20
860.0154493419127
 10
5520.43196473186
 20
822.0154493419146
 97
        0
 75
     0
 76
     1
 52
45.0
 41
24.0
 77
     0
 78
    40
 53
45.0
 43
9.545942
 44
9.545942
 45
36.77011830712543
 46
73.538539557976
 79
     2
 49
12.0
 49
-144.0
 53
45.0
 43
1.06066
 44
18.031223
 45
36.77011830712543
 46
73.538539557976
 79
     2
 49
12.0
 49
-144.0
 53
45.0
 43
37.654285
 44
39.775605
 45
36.77011830712543
 46
73.538539557976
 79
     2
 49
85.5
 49
-70.5024
 53
45.0
 43
31.290324
 44
46.139566
 45
36.77011830712543
 46
73.538539557976
 79
     2
 49
85.5
 49
-70.5024
 53
45.0
 43
9.545942
 44
13.788582
 45
36.77011830712543
 46
73.538539557976
 79
     2
 49
6.0
 49
-150.0
 53
45.0
 43
5.303301
 44
18.031223
 45
36.77011830712543
 46
73.538539557976
 79
     2
 49
6.0
 49
-150.0
 53
45.0
 43
9.545942
 44
15.909903
 45
36.77011830712543
 46
73.538539557976
 79
     2
 49
3.0
 49
-153.0
 53
45.0
 43
7.424621
 44
18.031223
 45
36.77011830712543
 46
73.538539557976
 79
     2
 49
3.0
 49
-153.0
 53
63.43
 43
-3.181981
 44
9.545942
 45
-36.76636791610095
 46
36.77379313176576
 79
     2
 49
9.4872
 49
-72.732
 53
63.43
 43
1.06066
 44
9.545942
 45
-36.76636791610095
 46
36.77379313176576
 79
     2
 49
9.4872
 49
-72.732
 53
63.43
 43
5.303301
 44
13.788582
 45
-36.76636791610095
 46
36.77379313176576
 79
     2
 49
4.7424
 49
-77.4768
 53
63.43
 43
11.667262
 44
18.031223
 45
-36.76636791610095
 46
36.77379313176576
 79
     2
 49
4.7424
 49
-77.4768
 53
63.43
 43
13.788582
 44
18.031223
 45
-36.76636791610095
 46
36.77379313176576
 79
     2
 49
9.4872
 49
-72.732
 53
63.43
 43
18.031223
 44
18.031223
 45
-36.76636791610095
 46
36.77379313176576
 79
     2
 49
9.4872
 49
-72.732
 53
26.57
 43
1.06066
 44
5.303301
 45
36.76211879101426
 46
73.54226364040854
 79
     2
 49
9.4872
 49
-72.732
 53
26.57
 43
1.06066
 44
9.545942
 45
36.76211879101426
 46
73.54226364040854
 79
     2
 49
9.4872
 49
-72.732
 53
26.57
 43
5.303301
 44
13.788582
 45
36.76211879101426
 46
73.54226364040854
 79
     2
 49
4.7424
 49
-77.4768
 53
26.57
 43
9.545942
 44
20.152543
 45
36.76211879101426
 46
73.54226364040854
 79
     2
 49
4.7424
 49
-77.4768
 53
26.57
 43
9.545942
 44
22.273864
 45
36.76211879101426
 46
73.54226364040854
 79
     2
 49
9.4872
 49
-72.732
 53
26.57
 43
9.545942
 44
26.516504
 45
36.76211879101426
 46
73.54226364040854
 79
     2
 49
9.4872
 49
-72.732
 53
78.69
 43
-4.242641
 44
4.242641
 45
-36.76997929329569
 46
-73.53927123306707
 79
     2
 49
5.4072
 49
-182.0808
 53
78.69
 43
22.273864
 44
26.516504
 45
-36.76997929329569
 46
-73.53927123306707
 79
     2
 49
5.4072
 49
-182.0808
 53
11.31
 43
-4.242641
 44
4.242641
 45
73.53927123306707
 46
36.76997929329568
 79
     2
 49
5.4072
 49
-182.0808
 53
11.31
 43
18.031223
 44
30.759145
 45
73.53927123306707
 46
36.76997929329568
 79
     2
 49
5.4072
 49
-182.0808
 53
45.0
 43
36.415434
 44
59.043982
 45
-36.77011830712541
 46
36.77011830712542
 79
     4
 49
60.0
 49
-29.2512
 49
37.5
 49
-29.2512
 53
45.0
 43
42.957585
 44
72.65607
 45
-36.77011830712541
 46
36.77011830712542
 79
     4
 49
31.5
 49
-29.2488
 49
66.0
 49
-29.2488
 53
45.0
 43
27.400671
 44
88.212985
 45
-36.77011830712541
 46
36.77011830712542
 79
     4
 49
31.5
 49
-29.2488
 49
66.0
 49
-29.2488
 53
45.0
 43
13.788582
 44
81.670833
 45
-36.77011830712541
 46
36.77011830712542
 79
     4
 49
60.0
 49
-29.2512
 49
37.5
 49
-29.2512
 53
63.43
 43
-6.89514
 44
60.987111
 45
-36.76100042591992
 46
36.7845257944902
 79
     2
 49
17.3928
 49
-147.0456
 53
63.43
 43
6.716949
 44
67.529263
 45
-36.76636791610095
 46
36.77379313176576
 79
     2
 49
15.8112
 49
-148.6272
 53
63.43
 43
18.209414
 44
69.827077
 45
-36.76636791610095
 46
36.77379313176576
 79
     2
 49
20.556
 49
-143.8848
 53
63.43
 43
65.229752
 44
94.928237
 45
-36.76636791610095
 46
36.77379313176576
 79
     2
 49
20.556
 49
-143.8848
 53
63.43
 43
78.84184
 44
101.470389
 45
-36.76636791610095
 46
36.77379313176576
 79
     2
 49
15.8112
 49
-148.6272
 53
63.43
 43
91.747953
 44
106.597196
 45
-36.76636791610095
 46
36.77379313176576
 79
     2
 49
17.3928
 49
-147.0456
 53
26.57
 43
15.731712
 44
38.36026
 45
110.2980307137942
 46
110.3181593647161
 79
     2
 49
17.3928
 49
-147.0456
 53
26.57
 43
22.273864
 44
51.972348
 45
110.2980307137942
 46
110.3181593647161
 79
     2
 49
15.8112
 49
-148.6272
 53
26.57
 43
24.571678
 44
63.461419
 45
110.2980307137942
 46
110.3181593647161
 79
     2
 49
20.556
 49
-143.8848
 53
26.57
 43
49.672837
 44
110.485152
 45
110.2980307137942
 46
110.3181593647161
 79
     2
 49
20.556
 49
-143.8848
 53
26.57
 43
56.214989
 44
124.09724
 45
110.2980307137942
 46
110.3181593647161
 79
     2
 49
15.8112
 49
-148.6272
 53
26.57
 43
61.341796
 44
137.003353
 45
110.2980307137942
 46
110.3181593647161
 79
     2
 49
17.3928
 49
-147.0456
 47
1.063376
 98
        3
 10
5432.397497
 20
836.351283
 10
5482.413145
 20
838.478036
 10
5543.070478
 20
840.604788
  0
HATCH
  5
C7
100
AcDbEntity
  8
CO1
100
AcDbHatch
 10
0.0
 20
0.0
 30
0.0
210
0.0
220
0.0
230
1.0
  2
WOOD07
 70
     0
 71
     0
 91
        3
 92
        7
 72
     0
 73
     1
 93
        5
 10
5460.431964731859
 20
822.0154493419144
 10
5460.43196473186
 20
860.0154493419127
 10
5408.451202618326
 20
860.0154493419129
 10
5408.43196473186
 20
859.9436525721925
 10
5408.43196473186
 20
822.0154493419144
 97
        0
 92
        7
 72
     0
 73
     1
 93
        4
 10
5516.431964731859
 20
822.0154493419144
 10
5516.431964731859
 20
860.0154493419124
 10
5464.431964731861
 20
860.0154493419125
 10
5464.431964731861
 20
822.0154493419144
 97
        0
 92
        7
 72
     0
 73
     1
 93
        4
 10
5572.431964731867
 20
822.0154493419144
 10
5572.431964731867
 20
860.0154493419125
 10
5520.43196473186
 20
860.0154493419127
 10
5520.43196473186
 20
822.0154493419146
 97
        0
 75
     0
 76
     1
 52
135.0
 41
24.0
 77
     0
 78
    40
 53
135.0
 43
-9.545942
 44
9.545942
 45
-73.538539557976
 46
36.77011830712543
 79
     2
 49
12.0
 49
-144.0
 53
135.0
 43
-18.031223
 44
1.06066
 45
-73.538539557976
 46
36.77011830712543
 79
     2
 49
12.0
 49
-144.0
 53
135.0
 43
-39.775605
 44
37.654285
 45
-73.538539557976
 46
36.77011830712543
 79
     2
 49
85.5
 49
-70.5024
 53
135.0
 43
-46.139566
 44
31.290324
 45
-73.538539557976
 46
36.77011830712543
 79
     2
 49
85.5
 49
-70.5024
 53
135.0
 43
-13.788582
 44
9.545942
 45
-73.538539557976
 46
36.77011830712543
 79
     2
 49
6.0
 49
-150.0
 53
135.0
 43
-18.031223
 44
5.303301
 45
-73.538539557976
 46
36.77011830712543
 79
     2
 49
6.0
 49
-150.0
 53
135.0
 43
-15.909903
 44
9.545942
 45
-73.538539557976
 46
36.77011830712543
 79
     2
 49
3.0
 49
-153.0
 53
135.0
 43
-18.031223
 44
7.424621
 45
-73.538539557976
 46
36.77011830712543
 79
     2
 49
3.0
 49
-153.0
 53
153.43
 43
-9.545942
 44
-3.181981
 45
-36.77379313176576
 46
-36.76636791610095
 79
     2
 49
9.4872
 49
-72.732
 53
153.43
 43
-9.545942
 44
1.06066
 45
-36.77379313176576
 46
-36.76636791610095
 79
     2
 49
9.4872
 49
-72.732
 53
153.43
 43
-13.788582
 44
5.303301
 45
-36.77379313176576
 46
-36.76636791610095
 79
     2
 49
4.7424
 49
-77.4768
 53
153.43
 43
-18.031223
 44
11.667262
 45
-36.77379313176576
 46
-36.76636791610095
 79
     2
 49
4.7424
 49
-77.4768
 53
153.43
 43
-18.031223
 44
13.788582
 45
-36.77379313176576
 46
-36.76636791610095
 79
     2
 49
9.4872
 49
-72.732
 53
153.43
 43
-18.031223
 44
18.031223
 45
-36.77379313176576
 46
-36.76636791610095
 79
     2
 49
9.4872
 49
-72.732
 53
116.57
 43
-5.303301
 44
1.06066
 45
-73.54226364040854
 46
36.76211879101426
 79
     2
 49
9.4872
 49
-72.732
 53
116.57
 43
-9.545942
 44
1.06066
 45
-73.54226364040854
 46
36.76211879101426
 79
     2
 49
9.4872
 49
-72.732
 53
116.57
 43
-13.788582
 44
5.303301
 45
-73.54226364040854
 46
36.76211879101426
 79
     2
 49
4.7424
 49
-77.4768
 53
116.57
 43
-20.152543
 44
9.545942
 45
-73.54226364040854
 46
36.76211879101426
 79
     2
 49
4.7424
 49
-77.4768
 53
116.57
 43
-22.273864
 44
9.545942
 45
-73.54226364040854
 46
36.76211879101426
 79
     2
 49
9.4872
 49
-72.732
 53
116.57
 43
-26.516504
 44
9.545942
 45
-73.54226364040854
 46
36.76211879101426
 79
     2
 49
9.4872
 49
-72.732
 53
168.69
 43
-4.242641
 44
-4.242641
 45
73.53927123306707
 46
-36.76997929329569
 79
     2
 49
5.4072
 49
-182.0808
 53
168.69
 43
-26.516504
 44
22.273864
 45
73.53927123306707
 46
-36.76997929329569
 79
     2
 49
5.4072
 49
-182.0808
 53
101.31
 43
-4.242641
 44
-4.242641
 45
-36.76997929329568
 46
73.53927123306707
 79
     2
 49
5.4072
 49
-182.0808
 53
101.31
 43
-30.759145
 44
18.031223
 45
-36.76997929329568
 46
73.53927123306707
 79
     2
 49
5.4072
 49
-182.0808
 53
135.0
 43
-59.043982
 44
36.415434
 45
-36.77011830712542
 46
-36.77011830712541
 79
     4
 49
60.0
 49
-29.2512
 49
37.5
 49
-29.2512
 53
135.0
 43
-72.65607
 44
42.957585
 45
-36.77011830712542
 46
-36.77011830712541
 79
     4
 49
31.5
 49
-29.2488
 49
66.0
 49
-29.2488
 53
135.0
 43
-88.212985
 44
27.400671
 45
-36.77011830712542
 46
-36.77011830712541
 79
     4
 49
31.5
 49
-29.2488
 49
66.0
 49
-29.2488
 53
135.0
 43
-81.670833
 44
13.788582
 45
-36.77011830712542
 46
-36.77011830712541
 79
     4
 49
60.0
 49
-29.2512
 49
37.5
 49
-29.2512
 53
153.43
 43
-60.987111
 44
-6.89514
 45
-36.7845257944902
 46
-36.76100042591992
 79
     2
 49
17.3928
 49
-147.0456
 53
153.43
 43
-67.529263
 44
6.716949
 45
-36.77379313176576
 46
-36.76636791610095
 79
     2
 49
15.8112
 49
-148.6272
 53
153.43
 43
-69.827077
 44
18.209414
 45
-36.77379313176576
 46
-36.76636791610095
 79
     2
 49
20.556
 49
-143.8848
 53
153.43
 43
-94.928237
 44
65.229752
 45
-36.77379313176576
 46
-36.76636791610095
 79
     2
 49
20.556
 49
-143.8848
 53
153.43
 43
-101.470389
 44
78.84184
 45
-36.77379313176576
 46
-36.76636791610095
 79
     2
 49
15.8112
 49
-148.6272
 53
153.43
 43
-106.597196
 44
91.747953
 45
-36.77379313176576
 46
-36.76636791610095
 79
     2
 49
17.3928
 49
-147.0456
 53
116.57
 43
-38.36026
 44
15.731712
 45
-110.3181593647161
 46
110.2980307137942
 79
     2
 49
17.3928
 49
-147.0456
 53
116.57
 43
-51.972348
 44
22.273864
 45
-110.3181593647161
 46
110.2980307137942
 79
     2
 49
15.8112
 49
-148.6272
 53
116.57
 43
-63.461419
 44
24.571678
 45
-110.3181593647161
 46
110.2980307137942
 79
     2
 49
20.556
 49
-143.8848
 53
116.57
 43
-110.485152
 44
49.672837
 45
-110.3181593647161
 46
110.2980307137942
 79
     2
 49
20.556
 49
-143.8848
 53
116.57
 43
-124.09724
 44
56.214989
 45
-110.3181593647161
 46
110.2980307137942
 79
     2
 49
15.8112
 49
-148.6272
 53
116.57
 43
-137.003353
 44
61.341796
 45
-110.3181593647161
 46
110.2980307137942
 79
     2
 49
17.3928
 49
-147.0456
 47
1.063376
 98
        3
 10
5432.397497
 20
836.351283
 10
5482.413145
 20
838.478036
 10
5543.070478
 20
840.604788
  0
LINE
  5
C8
100
AcDbEntity
  8
CO3
100
AcDbLine
 10
5520.431965
 20
806.087246
 30
0.0
 11
5520.431965
 21
860.015449
 31
0.0
  0
LINE
  5
C9
100
AcDbEntity
  8
CO3
100
AcDbLine
 10
5516.431965
 20
806.087246
 30
0.0
 11
5516.431965
 21
860.015449
 31
0.0
  0
LINE
  5
CA
100
AcDbEntity
  8
CO3
100
AcDbLine
 10
5460.431965
 20
806.015449
 30
0.0
 11
5460.431965
 21
859.943653
 31
0.0
  0
LINE
  5
CB
100
AcDbEntity
  8
CO3
100
AcDbLine
 10
5464.431965
 20
806.015449
 30
0.0
 11
5464.431965
 21
859.943653
 31
0.0
  0
LINE
  5
CC
100
AcDbEntity
  8
CO3
100
AcDbLine
 10
5576.431965
 20
862.015449
 30
0.0
 11
5576.431965
 21
806.015449
 31
0.0
  0
LINE
  5
CD
100
AcDbEntity
  8
CO3
100
AcDbLine
 10
5404.431965
 20
806.015449
 30
0.0
 11
5404.431965
 21
862.015449
 31
0.0
  0
LINE
  5
CE
100
AcDbEntity
  8
CO3
100
AcDbLine
 10
5408.431965
 20
806.015449
 30
0.0
 11
5408.431965
 21
859.943653
 31
0.0
  0
LWPOLYLINE
  5
CF
100
AcDbEntity
  8
CO1
  6
DASHDOT2
100
AcDbPolyline
 90
        3
 70
     0
 43
0.0
 10
5361.431965
 20
915.015449
 10
5327.431965
 20
880.515449
 10
5361.431965
 20
846.015449
  0
LWPOLYLINE
  5
D0
100
AcDbEntity
  8
CO1
  6
DASHDOT2
100
AcDbPolyline
 90
        3
 70
     0
 43
0.0
 10
5291.431965
 20
915.015449
 10
5325.431965
 20
880.515449
 10
5291.431965
 20
846.015449
  0
LWPOLYLINE
  5
D1
100
AcDbEntity
  8
CO1
  6
DASHDOT2
100
AcDbPolyline
 90
        3
 70
     0
 43
0.0
 10
5363.431965
 20
915.015449
 10
5397.431965
 20
880.515449
 10
5363.431965
 20
846.015449
  0
LWPOLYLINE
  5
D2
100
AcDbEntity
  8
CO1
  6
DASHDOT2
100
AcDbPolyline
 90
        3
 70
     0
 43
0.0
 10
5289.431965
 20
915.015449
 10
5255.431965
 20
880.515449
 10
5289.431965
 20
846.015449
  0
LINE
  5
D3
100
AcDbEntity
  8
CO4
100
AcDbLine
 10
5404.431965
 20
935.14545
 30
0.0
 11
5404.431965
 21
806.015449
 31
0.0
  0
LWPOLYLINE
  5
D4
100
AcDbEntity
  8
CO2
100
AcDbPolyline
 90
        4
 70
     1
 43
0.0
 10
5363.431965
 20
915.015449
 10
5397.431965
 20
915.015449
 10
5397.431965
 20
846.015449
 10
5363.431965
 20
846.015449
  0
LWPOLYLINE
  5
D5
100
AcDbEntity
  8
CO2
100
AcDbPolyline
 90
        4
 70
     1
 43
0.0
 10
5365.931965
 20
912.515449
 10
5394.931965
 20
912.515449
 10
5394.931965
 20
848.515449
 10
5365.931965
 20
848.515449
  0
LWPOLYLINE
  5
D6
100
AcDbEntity
  8
CO2
100
AcDbPolyline
 90
        4
 70
     1
 43
0.0
 10
5327.431965
 20
915.015449
 10
5361.431965
 20
915.015449
 10
5361.431965
 20
846.015449
 10
5327.431965
 20
846.015449
  0
LWPOLYLINE
  5
D7
100
AcDbEntity
  8
CO2
100
AcDbPolyline
 90
        4
 70
     1
 43
0.0
 10
5329.931965
 20
912.515449
 10
5358.931965
 20
912.515449
 10
5358.931965
 20
848.515449
 10
5329.931965
 20
848.515449
  0
LWPOLYLINE
  5
D8
100
AcDbEntity
  8
CO2
100
AcDbPolyline
 90
        4
 70
     1
 43
0.0
 10
5291.431965
 20
915.015449
 10
5325.431965
 20
915.015449
 10
5325.431965
 20
846.015449
 10
5291.431965
 20
846.015449
  0
LWPOLYLINE
  5
D9
100
AcDbEntity
  8
CO2
100
AcDbPolyline
 90
        4
 70
     1
 43
0.0
 10
5293.931965
 20
912.515449
 10
5322.931965
 20
912.515449
 10
5322.931965
 20
848.515449
 10
5293.931965
 20
848.515449
  0
LWPOLYLINE
  5
DA
100
AcDbEntity
  8
CO2
100
AcDbPolyline
 90
        4
 70
     1
 43
0.0
 10
5257.931965
 20
912.515449
 10
5286.931965
 20
912.515449
 10
5286.931965
 20
848.515449
 10
5257.931965
 20
848.515449
  0
LWPOLYLINE
  5
DB
100
AcDbEntity
  8
CO2
100
AcDbPolyline
 90
        4
 70
     1
 43
0.0
 10
5255.431965
 20
915.015449
 10
5289.431965
 20
915.015449
 10
5289.431965
 20
846.015449
 10
5255.431965
 20
846.015449
  0
LWPOLYLINE
  5
DC
100
AcDbEntity
  8
CO2
100
AcDbPolyline
 90
        4
 70
     1
 43
0.0
 10
5362.431965
 20
916.015449
 10
5398.431965
 20
916.015449
 10
5398.431965
 20
845.015449
 10
5362.431965
 20
845.015449
  0
LWPOLYLINE
  5
DD
100
AcDbEntity
  8
CO2
100
AcDbPolyline
 90
        4
 70
     1
 43
0.0
 10
5326.431965
 20
916.015449
 10
5362.431965
 20
916.015449
 10
5362.431965
 20
845.015449
 10
5326.431965
 20
845.015449
  0
LWPOLYLINE
  5
DE
100
AcDbEntity
  8
CO2
100
AcDbPolyline
 90
        4
 70
     1
 43
0.0
 10
5290.431965
 20
916.015449
 10
5326.431965
 20
916.015449
 10
5326.431965
 20
845.015449
 10
5290.431965
 20
845.015449
  0
LWPOLYLINE
  5
DF
100
AcDbEntity
  8
CO2
100
AcDbPolyline
 90
        4
 70
     1
 43
0.0
 10
5254.431965
 20
916.015449
 10
5290.431965
 20
916.015449
 10
5290.431965
 20
845.015449
 10
5254.431965
 20
845.015449
  0
LINE
  5
E0
100
AcDbEntity
  8
CO2
100
AcDbLine
 10
5362.431965
 20
845.015449
 30
0.0
 11
5362.431965
 21
916.015449
 31
0.0
  0
LINE
  5
E1
100
AcDbEntity
  8
CO2
100
AcDbLine
 10
5326.431965
 20
845.015449
 30
0.0
 11
5326.431965
 21
916.015449
 31
0.0
  0
LINE
  5
E2
100
AcDbEntity
  8
CO2
100
AcDbLine
 10
5290.431965
 20
845.015449
 30
0.0
 11
5290.431965
 21
916.015449
 31
0.0
  0
LINE
  5
E3
100
AcDbEntity
  8
CO2
100
AcDbLine
 10
5290.431965
 20
845.015449
 30
0.0
 11
5290.431965
 21
916.015449
 31
0.0
  0
LINE
  5
E4
100
AcDbEntity
  8
CO2
100
AcDbLine
 10
5254.431965
 20
845.015449
 30
0.0
 11
5254.431965
 21
916.015449
 31
0.0
  0
LINE
  5
E5
100
AcDbEntity
  8
CO2
100
AcDbLine
 10
5254.431965
 20
845.015449
 30
0.0
 11
5254.431965
 21
916.015449
 31
0.0
  0
LINE
  5
E6
100
AcDbEntity
  8
CO2
100
AcDbLine
 10
5398.431965
 20
916.015449
 30
0.0
 11
5398.431965
 21
845.015449
 31
0.0
  0
LWPOLYLINE
  5
E7
100
AcDbEntity
  8
CO4
100
AcDbPolyline
 90
        4
 70
     1
 43
0.0
 10
5140.431965
 20
862.015449
 10
5200.431965
 20
862.015449
 10
5200.431965
 20
856.015449
 10
5140.431965
 20
856.015449
  0
LINE
  5
E8
100
AcDbEntity
  8
CO4
100
AcDbLine
 10
5404.431965
 20
869.686409
 30
0.0
 11
5404.431965
 21
806.015449
 31
0.0
  0
LINE
  5
E9
100
AcDbEntity
  8
CO3
100
AcDbLine
 10
5460.431965
 20
820.015449
 30
0.0
 11
5408.431965
 21
820.015449
 31
0.0
  0
LINE
  5
EA
100
AcDbEntity
  8
CO3
100
AcDbLine
 10
5460.431965
 20
820.015449
 30
0.0
 11
5426.380233
 21
820.015449
 31
0.0
  0
LINE
  5
EB
100
AcDbEntity
  8
CO3
100
AcDbLine
 10
5460.431965
 20
822.015449
 30
0.0
 11
5426.380233
 21
822.015449
 31
0.0
  0
LINE
  5
EC
100
AcDbEntity
  8
CO3
100
AcDbLine
 10
5460.431965
 20
822.015449
 30
0.0
 11
5408.431965
 21
822.015449
 31
0.0
  0
LINE
  5
ED
100
AcDbEntity
  8
CO3
100
AcDbLine
 10
5453.380233
 20
818.015449
 30
0.0
 11
5408.431965
 21
818.015449
 31
0.0
  0
LINE
  5
EE
100
AcDbEntity
  8
CO3
100
AcDbLine
 10
5408.431965
 20
818.015449
 30
0.0
 11
5460.431965
 21
818.015449
 31
0.0
  0
LINE
  5
EF
100
AcDbEntity
  8
CO3
100
AcDbLine
 10
5406.77511
 20
806.015449
 30
0.0
 11
5576.431965
 21
806.015449
 31
0.0
  0
LWPOLYLINE
  5
F0
100
AcDbEntity
  8
CO2
  6
HIDDEN2
100
AcDbPolyline
 90
        4
 70
     0
 43
0.0
 10
5396.016314
 20
725.11359
 10
5386.235124
 20
721.068995
 42
0.303511
 10
5384.257928
 20
718.111843
 10
5384.257928
 20
666.040009
  0
LWPOLYLINE
  5
F1
100
AcDbEntity
  8
CO2
  6
HIDDEN2
100
AcDbPolyline
 90
        6
 70
     0
 43
0.0
 10
5384.257928
 20
666.040009
 10
5384.257928
 20
665.105254
 42
0.414214
 10
5387.457928
 20
661.905254
 10
5426.091469
 20
661.905254
 42
0.414214
 10
5429.291469
 20
665.105254
 10
5429.291469
 20
714.578495
  0
LINE
  5
F2
100
AcDbEntity
  8
CO3
100
AcDbLine
 10
5404.431965
 20
806.015449
 30
0.0
 11
5404.431965
 21
691.034451
 31
0.0
  0
LINE
  5
F3
100
AcDbEntity
  8
CO4
100
AcDbLine
 10
5356.431965
 20
806.015449
 30
0.0
 11
5356.431965
 21
656.405455
 31
0.0
  0
LWPOLYLINE
  5
F4
100
AcDbEntity
  8
CO2
100
AcDbPolyline
 90
        4
 70
     1
 43
0.0
 10
5117.451402
 20
673.022874
 10
5147.451402
 20
673.022874
 10
5147.451402
 20
693.022874
 10
5117.451402
 20
693.022874
  0
LWPOLYLINE
  5
F5
100
AcDbEntity
  8
CO1
  6
DASHDOT2
100
AcDbPolyline
 90
        3
 70
     0
 43
0.0
 10
5117.451402
 20
693.022874
 10
5147.451402
 20
683.022874
 10
5117.451402
 20
673.022874
  0
LWPOLYLINE
  5
F6
100
AcDbEntity
  8
CO2
  6
HIDDEN2
100
AcDbPolyline
 90
        4
 70
     1
 43
0.0
 10
5376.774699
 20
656.905254
 10
5436.774699
 20
656.905254
 10
5436.774699
 20
661.905254
 10
5376.774699
 20
661.905254
  0
LWPOLYLINE
  5
F7
100
AcDbEntity
  8
CO1
  6
DASHDOT2
100
AcDbPolyline
 90
        3
 70
     0
 43
0.0
 10
5282.527007
 20
693.022874
 10
5312.527007
 20
683.022874
 10
5282.527007
 20
673.022874
  0
HATCH
  5
F8
100
AcDbEntity
  8
CO2
100
AcDbHatch
 10
0.0
 20
0.0
 30
0.0
210
0.0
220
0.0
230
1.0
  2
ANSI31
 70
     0
 71
     1
 91
        1
 92
        7
 72
     0
 73
     1
 93
        4
 10
5256.324604749338
 20
692.0228739412441
 10
5256.324604749337
 20
682.0228739412442
 10
5266.324604749337
 20
682.0228739412441
 10
5266.324604749337
 20
692.0228739412441
 97
        1
330
F9
 75
     0
 76
     1
 52
135.0
 41
16.0
 77
     0
 78
     1
 53
180.0
 43
0.0
 44
0.0
 45
-0.0000000000000004
 46
-2.0
 79
     0
 47
0.040614
 98
        1
 10
5262.609845
 20
688.402036
  0
LWPOLYLINE
  5
F9
102
{ACAD_REACTORS
330
F8
102
}
100
AcDbEntity
  8
CO2
100
AcDbPolyline
 90
        4
 70
     1
 43
0.0
 10
5256.324605
 20
692.022874
 10
5266.324605
 20
692.022874
 10
5266.324605
 20
682.022874
 10
5256.324605
 20
682.022874
  0
LWPOLYLINE
  5
FA
100
AcDbEntity
  8
CO2
100
AcDbPolyline
 90
        4
 70
     1
 43
0.0
 10
5255.324605
 20
693.022874
 10
5267.324605
 20
693.022874
 10
5267.324605
 20
681.022874
 10
5255.324605
 20
681.022874
  0
LWPOLYLINE
  5
FB
100
AcDbEntity
  8
CO2
100
AcDbPolyline
 90
        4
 70
     1
 43
0.0
 10
5282.527007
 20
673.022874
 10
5312.527007
 20
673.022874
 10
5312.527007
 20
693.022874
 10
5282.527007
 20
693.022874
  0
LINE
  5
FC
100
AcDbEntity
  8
CO3
100
AcDbLine
 10
5421.438759
 20
690.25004
 30
0.0
 11
5356.395785
 21
693.25004
 31
0.0
  0
LWPOLYLINE
  5
FD
100
AcDbEntity
  8
CO1
  6
DASHDOT2
100
AcDbPolyline
 90
        3
 70
     0
 43
0.0
 10
5116.431965
 20
789.015449
 10
5145.431965
 20
766.015449
 10
5116.431965
 20
743.015449
  0
LWPOLYLINE
  5
FE
100
AcDbEntity
  8
CO1
  6
DASHDOT2
100
AcDbPolyline
 90
        3
 70
     0
 43
0.0
 10
5116.431965
 20
789.015449
 10
5087.431965
 20
766.015449
 10
5116.431965
 20
743.015449
  0
LWPOLYLINE
  5
FF
100
AcDbEntity
  8
CO4
100
AcDbPolyline
 90
        4
 70
     1
 43
0.0
 10
5086.431965
 20
742.015449
 10
5146.431965
 20
742.015449
 10
5146.431965
 20
736.015449
 10
5086.431965
 20
736.015449
  0
LWPOLYLINE
  5
100
100
AcDbEntity
  8
CO2
100
AcDbPolyline
 90
        4
 70
     1
 43
0.0
 10
5116.431965
 20
743.015449
 10
5087.431965
 20
743.015449
 10
5087.431965
 20
789.015449
 10
5116.431965
 20
789.015449
  0
LWPOLYLINE
  5
101
100
AcDbEntity
  8
CO2
100
AcDbPolyline
 90
        4
 70
     1
 43
0.0
 10
5145.431965
 20
743.015449
 10
5116.431965
 20
743.015449
 10
5116.431965
 20
789.015449
 10
5145.431965
 20
789.015449
  0
LWPOLYLINE
  5
102
100
AcDbEntity
  8
CO2
100
AcDbPolyline
 90
        4
 70
     1
 43
0.0
 10
5142.931965
 20
745.515449
 10
5118.931965
 20
745.515449
 10
5118.931965
 20
786.515449
 10
5142.931965
 20
786.515449
  0
LWPOLYLINE
  5
103
100
AcDbEntity
  8
CO2
100
AcDbPolyline
 90
        4
 70
     1
 43
0.0
 10
5113.931965
 20
745.515449
 10
5089.931965
 20
745.515449
 10
5089.931965
 20
786.515449
 10
5113.931965
 20
786.515449
  0
LWPOLYLINE
  5
104
100
AcDbEntity
  8
CO2
100
AcDbPolyline
 90
        4
 70
     1
 43
0.0
 10
5086.431965
 20
790.015449
 10
5146.431965
 20
790.015449
 10
5146.431965
 20
742.015449
 10
5086.431965
 20
742.015449
  0
LWPOLYLINE
  5
105
100
AcDbEntity
  8
CO2
100
AcDbPolyline
 90
        4
 70
     1
 43
0.0
 10
5366.931965
 20
745.515449
 10
5377.931965
 20
745.515449
 10
5377.931965
 20
786.515449
 10
5366.931965
 20
786.515449
  0
LWPOLYLINE
  5
106
100
AcDbEntity
  8
CO2
100
AcDbPolyline
 90
        4
 70
     1
 43
0.0
 10
5364.431965
 20
743.015449
 10
5380.431965
 20
743.015449
 10
5380.431965
 20
789.015449
 10
5364.431965
 20
789.015449
  0
LWPOLYLINE
  5
107
100
AcDbEntity
  8
CO3
100
AcDbPolyline
 90
        4
 70
     1
 43
0.0
 10
5363.431965
 20
742.015449
 10
5381.431965
 20
742.015449
 10
5381.431965
 20
790.015449
 10
5363.431965
 20
790.015449
  0
LWPOLYLINE
  5
108
100
AcDbEntity
  8
CO1
  6
DASHDOT2
100
AcDbPolyline
 90
        3
 70
     0
 43
0.0
 10
5380.431965
 20
789.015449
 10
5364.431965
 20
766.015449
 10
5380.431965
 20
743.015449
  0
LWPOLYLINE
  5
109
100
AcDbEntity
  8
CO4
100
AcDbPolyline
 90
        4
 70
     1
 43
0.0
 10
5363.431965
 20
742.015449
 10
5381.431965
 20
742.015449
 10
5381.431965
 20
736.015449
 10
5363.431965
 20
736.015449
  0
LINE
  5
10A
100
AcDbEntity
  8
CO2
  6
CONTINUOUS
100
AcDbLine
 10
5429.291469
 20
717.778495
 30
0.0
 11
5429.291469
 21
714.578495
 31
0.0
  0
HATCH
  5
10B
100
AcDbEntity
  8
CO253
100
AcDbHatch
 10
0.0
 20
0.0
 30
0.0
210
0.0
220
0.0
230
1.0
  2
ANSI31
 70
     0
 71
     0
 91
        2
 92
        7
 72
     0
 73
     1
 93
        4
 10
5356.431964731871
 20
706.4102656914491
 10
5356.431964731871
 20
710.0154493419124
 10
5352.43196473187
 20
710.0154493419124
 10
5352.431964731869
 20
706.410265691449
 97
        0
 92
        7
 72
     0
 73
     1
 93
        4
 10
5356.431964731871
 20
728.4054547210192
 10
5352.43196473187
 20
728.4054547210192
 10
5352.43196473187
 20
710.0154493419124
 10
5356.431964731871
 20
710.0154493419124
 97
        0
 75
     0
 76
     1
 52
135.0
 41
157.48
 77
     0
 78
     1
 53
180.0
 43
0.0
 44
0.0
 45
-0.0000000000000036
 46
-19.68499999999999
 79
     0
 47
0.228934
 98
        2
 10
5353.882779
 20
707.760125
 10
5355.257579
 20
712.567745
  0
LWPOLYLINE
  5
10C
100
AcDbEntity
  8
CO1
100
AcDbPolyline
 90
        4
 70
     1
 43
0.0
 10
5366.164865
 20
701.523298
 10
5393.509482
 20
701.523298
 10
5393.509482
 20
730.173644
 10
5366.164865
 20
730.173644
  0
LINE
  5
10D
100
AcDbEntity
  8
CO2
  6
HIDDEN2
100
AcDbLine
 10
5407.945582
 20
725.11359
 30
0.0
 11
5417.533084
 21
725.11359
 31
0.0
  0
LINE
  5
10E
100
AcDbEntity
  8
CO2
  6
HIDDEN2
100
AcDbLine
 10
5396.016314
 20
725.11359
 30
0.0
 11
5404.745582
 21
725.11359
 31
0.0
  0
LWPOLYLINE
  5
10F
100
AcDbEntity
  8
CO2
  6
HIDDEN2
100
AcDbPolyline
 90
        4
 70
     0
 43
0.0
 10
5429.291469
 20
717.778495
 10
5429.291469
 20
718.111843
 42
0.303511
 10
5427.314274
 20
721.068995
 10
5417.533084
 20
725.11359
  0
LINE
  5
110
100
AcDbEntity
  8
CO4
100
AcDbLine
 10
5356.431965
 20
728.405455
 30
0.0
 11
5352.431965
 21
728.405455
 31
0.0
  0
LWPOLYLINE
  5
111
100
AcDbEntity
  8
CO1
  6
DASHDOT2
100
AcDbPolyline
 90
        3
 70
     0
 43
0.0
 10
5284.431965
 20
789.015449
 10
5255.431965
 20
766.015449
 10
5284.431965
 20
743.015449
  0
LWPOLYLINE
  5
112
100
AcDbEntity
  8
CO1
  6
DASHDOT2
100
AcDbPolyline
 90
        3
 70
     0
 43
0.0
 10
5284.431965
 20
789.015449
 10
5313.431965
 20
766.015449
 10
5284.431965
 20
743.015449
  0
LWPOLYLINE
  5
113
100
AcDbEntity
  8
CO4
100
AcDbPolyline
 90
        4
 70
     1
 43
0.0
 10
5254.431965
 20
845.015449
 10
5404.431965
 20
845.015449
 10
5404.431965
 20
839.015449
 10
5254.431965
 20
839.015449
  0
LWPOLYLINE
  5
114
100
AcDbEntity
  8
CO4
100
AcDbPolyline
 90
        4
 70
     1
 43
0.0
 10
5254.431965
 20
742.015449
 10
5314.431965
 20
742.015449
 10
5314.431965
 20
736.015449
 10
5254.431965
 20
736.015449
  0
LWPOLYLINE
  5
115
100
AcDbEntity
  8
CO2
100
AcDbPolyline
 90
        4
 70
     1
 43
0.0
 10
5254.431965
 20
790.015449
 10
5314.431965
 20
790.015449
 10
5314.431965
 20
742.015449
 10
5254.431965
 20
742.015449
  0
LWPOLYLINE
  5
116
100
AcDbEntity
  8
CO2
100
AcDbPolyline
 90
        4
 70
     1
 43
0.0
 10
5281.931965
 20
745.515449
 10
5257.931965
 20
745.515449
 10
5257.931965
 20
786.515449
 10
5281.931965
 20
786.515449
  0
LWPOLYLINE
  5
117
100
AcDbEntity
  8
CO2
100
AcDbPolyline
 90
        4
 70
     1
 43
0.0
 10
5310.931965
 20
745.515449
 10
5286.931965
 20
745.515449
 10
5286.931965
 20
786.515449
 10
5310.931965
 20
786.515449
  0
LWPOLYLINE
  5
118
100
AcDbEntity
  8
CO2
100
AcDbPolyline
 90
        4
 70
     1
 43
0.0
 10
5313.431965
 20
743.015449
 10
5284.431965
 20
743.015449
 10
5284.431965
 20
789.015449
 10
5313.431965
 20
789.015449
  0
LWPOLYLINE
  5
119
100
AcDbEntity
  8
CO2
100
AcDbPolyline
 90
        4
 70
     1
 43
0.0
 10
5284.431965
 20
743.015449
 10
5255.431965
 20
743.015449
 10
5255.431965
 20
789.015449
 10
5284.431965
 20
789.015449
  0
LINE
  5
11A
100
AcDbEntity
  8
CO3
100
AcDbLine
 10
5520.431965
 20
683.356588
 30
0.0
 11
5520.431965
 21
699.209175
 31
0.0
  0
LINE
  5
11B
100
AcDbEntity
  8
CO3
100
AcDbLine
 10
5532.431965
 20
682.289569
 30
0.0
 11
5532.431965
 21
699.269624
 31
0.0
  0
LINE
  5
11C
100
AcDbEntity
  8
CO4
100
AcDbLine
 10
5505.733652
 20
683.356588
 30
0.0
 11
5545.596668
 21
682.289569
 31
0.0
  0
LINE
  5
11D
100
AcDbEntity
  8
CO3
100
AcDbLine
 10
5529.431965
 20
806.015449
 30
0.0
 11
5529.431965
 21
699.269624
 31
0.0
  0
LINE
  5
11E
100
AcDbEntity
  8
CO3
100
AcDbLine
 10
5572.431965
 20
820.015449
 30
0.0
 11
5520.431965
 21
820.015449
 31
0.0
  0
LINE
  5
11F
100
AcDbEntity
  8
CO3
100
AcDbLine
 10
5516.431965
 20
820.015449
 30
0.0
 11
5464.431965
 21
820.015449
 31
0.0
  0
LINE
  5
120
100
AcDbEntity
  8
CO3
100
AcDbLine
 10
5464.431965
 20
818.015449
 30
0.0
 11
5516.431965
 21
818.015449
 31
0.0
  0
LINE
  5
121
100
AcDbEntity
  8
CO3
100
AcDbLine
 10
5516.431965
 20
822.015449
 30
0.0
 11
5464.431965
 21
822.015449
 31
0.0
  0
LINE
  5
122
100
AcDbEntity
  8
CO3
100
AcDbLine
 10
5520.431965
 20
818.015449
 30
0.0
 11
5572.431965
 21
818.015449
 31
0.0
  0
LINE
  5
123
100
AcDbEntity
  8
CO3
100
AcDbLine
 10
5516.431965
 20
822.015449
 30
0.0
 11
5464.431965
 21
822.015449
 31
0.0
  0
LINE
  5
124
100
AcDbEntity
  8
CO3
100
AcDbLine
 10
5523.431965
 20
699.269624
 30
0.0
 11
5523.431965
 21
806.015449
 31
0.0
  0
LINE
  5
125
100
AcDbEntity
  8
CO3
100
AcDbLine
 10
5520.431965
 20
699.269624
 30
0.0
 11
5532.431965
 21
699.269624
 31
0.0
  0
LINE
  5
126
100
AcDbEntity
  8
CO3
100
AcDbLine
 10
5572.431965
 20
822.015449
 30
0.0
 11
5520.431965
 21
822.015449
 31
0.0
  0
LINE
  5
127
100
AcDbEntity
  8
CO3
100
AcDbLine
 10
5572.431965
 20
822.015449
 30
0.0
 11
5520.431965
 21
822.015449
 31
0.0
  0
LINE
  5
128
100
AcDbEntity
  8
CO3
100
AcDbLine
 10
5404.431965
 20
862.015449
 30
0.0
 11
5576.431965
 21
862.015449
 31
0.0
  0
LINE
  5
129
100
AcDbEntity
  8
CO3
100
AcDbLine
 10
5404.431965
 20
860.015449
 30
0.0
 11
5576.431965
 21
860.015449
 31
0.0
  0
LWPOLYLINE
  5
12A
100
AcDbEntity
  8
CO3
100
AcDbPolyline
 90
        4
 70
     1
 43
0.0
 10
5396.047906
 20
968.681174
 10
5448.875456
 20
938.181174
 10
5450.337956
 20
940.714299
 10
5397.510406
 20
971.214299
  0
LINE
  5
12B
100
AcDbEntity
  8
CO1
100
AcDbLine
 10
5409.320784
 20
941.14545
 30
0.0
 11
5188.431965
 21
946.520507
 31
0.0
  0
LWPOLYLINE
  5
12C
100
AcDbEntity
  8
CO1
  6
DASHDOT2
100
AcDbPolyline
 90
        3
 70
     0
 43
0.0
 10
5170.431965
 20
915.015449
 10
5141.431965
 20
889.015449
 10
5170.431965
 20
863.015449
  0
LWPOLYLINE
  5
12D
100
AcDbEntity
  8
CO1
  6
DASHDOT2
100
AcDbPolyline
 90
        3
 70
     0
 43
0.0
 10
5170.431965
 20
915.015449
 10
5199.431965
 20
889.015449
 10
5170.431965
 20
863.015449
  0
LWPOLYLINE
  5
12E
100
AcDbEntity
  8
CO1
  6
DASHDOT2
100
AcDbPolyline
 90
        3
 70
     0
 43
0.0
 10
5062.431965
 20
915.015449
 10
5091.431965
 20
889.015449
 10
5062.431965
 20
863.015449
  0
LWPOLYLINE
  5
12F
100
AcDbEntity
  8
CO2
100
AcDbPolyline
 90
        4
 70
     1
 43
0.0
 10
5170.431965
 20
863.015449
 10
5141.431965
 20
863.015449
 10
5141.431965
 20
915.015449
 10
5170.431965
 20
915.015449
  0
LWPOLYLINE
  5
130
100
AcDbEntity
  8
CO2
100
AcDbPolyline
 90
        4
 70
     1
 43
0.0
 10
5199.431965
 20
863.015449
 10
5170.431965
 20
863.015449
 10
5170.431965
 20
915.015449
 10
5199.431965
 20
915.015449
  0
LWPOLYLINE
  5
131
100
AcDbEntity
  8
CO2
100
AcDbPolyline
 90
        4
 70
     1
 43
0.0
 10
5196.931965
 20
865.515449
 10
5172.931965
 20
865.515449
 10
5172.931965
 20
912.515449
 10
5196.931965
 20
912.515449
  0
LWPOLYLINE
  5
132
100
AcDbEntity
  8
CO2
100
AcDbPolyline
 90
        4
 70
     1
 43
0.0
 10
5167.931965
 20
865.515449
 10
5143.931965
 20
865.515449
 10
5143.931965
 20
912.515449
 10
5167.931965
 20
912.515449
  0
LWPOLYLINE
  5
133
100
AcDbEntity
  8
CO2
100
AcDbPolyline
 90
        4
 70
     1
 43
0.0
 10
5140.431965
 20
916.015449
 10
5200.431965
 20
916.015449
 10
5200.431965
 20
862.015449
 10
5140.431965
 20
862.015449
  0
LWPOLYLINE
  5
134
100
AcDbEntity
  8
CO2
100
AcDbPolyline
 90
        4
 70
     1
 43
0.0
 10
5088.931965
 20
865.515449
 10
5064.931965
 20
865.515449
 10
5064.931965
 20
912.515449
 10
5088.931965
 20
912.515449
  0
LWPOLYLINE
  5
135
100
AcDbEntity
  8
CO2
100
AcDbPolyline
 90
        4
 70
     1
 43
0.0
 10
5091.431965
 20
863.015449
 10
5062.431965
 20
863.015449
 10
5062.431965
 20
915.015449
 10
5091.431965
 20
915.015449
  0
LINE
  5
136
100
AcDbEntity
  8
CO4
100
AcDbLine
 10
5404.431965
 20
935.14545
 30
0.0
 11
5409.431965
 21
935.14545
 31
0.0
  0
LINE
  5
137
100
AcDbEntity
  8
CO4
100
AcDbLine
 10
5409.431965
 20
941.14545
 30
0.0
 11
5409.431965
 21
935.14545
 31
0.0
  0
LWPOLYLINE
  5
138
100
AcDbEntity
  8
CO3
100
AcDbPolyline
 90
        2
 70
     0
 43
0.0
 10
5435.733151
 20
939.418035
 10
5394.163932
 20
963.418035
  0
LWPOLYLINE
  5
139
100
AcDbEntity
  8
CO3
100
AcDbPolyline
 90
        2
 70
     0
 43
0.0
 10
5403.306867
 20
958.139359
 10
5403.306867
 20
941.14545
  0
LWPOLYLINE
  5
13A
100
AcDbEntity
  8
CO3
100
AcDbPolyline
 90
        2
 70
     0
 43
0.0
 10
5401.306867
 20
941.14545
 10
5401.306867
 20
959.294059
  0
LWPOLYLINE
  5
13B
100
AcDbEntity
  8
CO3
100
AcDbPolyline
 90
        2
 70
     0
 43
0.0
 10
5354.053327
 20
941.14545
 10
5354.053327
 20
986.575903
  0
LWPOLYLINE
  5
13C
100
AcDbEntity
  8
CO3
100
AcDbPolyline
 90
        2
 70
     0
 43
0.0
 10
5356.053327
 20
948.572556
 10
5381.469341
 20
970.74726
  0
LWPOLYLINE
  5
13D
100
AcDbEntity
  8
CO3
100
AcDbPolyline
 90
        2
 70
     0
 43
0.0
 10
5383.257888
 20
969.714642
 10
5356.053327
 20
945.924483
  0
LWPOLYLINE
  5
13E
100
AcDbEntity
  8
CO3
100
AcDbPolyline
 90
        2
 70
     0
 43
0.0
 10
5356.053327
 20
985.421203
 10
5356.053327
 20
941.14545
  0
LWPOLYLINE
  5
13F
100
AcDbEntity
  8
CO3
100
AcDbPolyline
 90
        4
 70
     1
 43
0.0
 10
5437.733151
 20
942.882136
 10
5436.434113
 20
943.632136
 10
5437.184113
 20
944.931174
 10
5438.483151
 20
944.181174
  0
LWPOLYLINE
  5
140
100
AcDbEntity
  8
CO3
100
AcDbPolyline
 90
        4
 70
     1
 43
0.0
 10
5405.690211
 20
961.382136
 10
5406.989249
 20
960.632136
 10
5407.739249
 20
961.931174
 10
5406.440211
 20
962.681174
  0
LWPOLYLINE
  5
141
100
AcDbEntity
  8
CO3
100
AcDbPolyline
 90
        4
 70
     1
 43
0.0
 10
5384.905601
 20
973.382136
 10
5383.606563
 20
974.132136
 10
5384.356563
 20
975.431174
 10
5385.655601
 20
974.681174
  0
LWPOLYLINE
  5
142
100
AcDbEntity
  8
CO3
100
AcDbPolyline
 90
        5
 70
     0
 43
0.0
 10
5394.163932
 20
963.418035
 10
5350.862662
 20
988.418035
 10
5352.862662
 20
991.882136
 10
5437.733151
 20
942.882136
 10
5435.733151
 20
939.418035
  0
LWPOLYLINE
  5
143
100
AcDbEntity
  8
CO3
100
AcDbPolyline
 90
        4
 70
     1
 43
0.0
 10
5352.862662
 20
991.882136
 10
5354.1617
 20
991.132136
 10
5354.9117
 20
992.431174
 10
5353.612662
 20
993.181174
  0
LWPOLYLINE
  5
144
100
AcDbEntity
  8
CO3
100
AcDbPolyline
 90
        4
 70
     1
 43
0.0
 10
5343.220357
 20
999.181174
 10
5396.047906
 20
968.681174
 10
5397.510406
 20
971.214299
 10
5344.682857
 20
1001.714299
  0
LINE
  5
145
100
AcDbEntity
  8
CO2
100
AcDbLine
 10
5254.431965
 20
916.015449
 30
0.0
 11
5404.431965
 21
916.015449
 31
0.0
  0
ENDSEC
  0
SECTION
  2
OBJECTS
  0
DICTIONARY
  5
1E
100
AcDbDictionary
  3
ACAD_GROUP
350
1C
  3
ACAD_MLINESTYLE
350
1D
  0
DICTIONARY
  5
22
100
AcDbDictionary
280
     1
  3
ACAD_XREC_ROUNDTRIP
360
23
  0
DICTIONARY
  5
3
100
AcDbDictionary
280
     1
  3
ACAD_LAYOUTSELFREF
360
4
  0
DICTIONARY
  5
A
100
AcDbDictionary
280
     1
  3
ACAD_LAYOUTSELFREF
360
B
  0
DICTIONARY
  5
1C
102
{ACAD_REACTORS
330
1E
102
}
100
AcDbDictionary
  0
DICTIONARY
  5
1D
102
{ACAD_REACTORS
330
1E
102
}
100
AcDbDictionary
  3
STANDARD
350
20
  0
XRECORD
  5
23
102
{ACAD_REACTORS
330
22
102
}
100
AcDbXrecord
102
ACADR14ROUNDTRIP
1000
DSTYLE
1002
{
1070
   276
 70
     2
1070
   277
 70
     4
1070
   341
340
27
1070
   343
340
27
1070
   344
340
27
1002
}
  0
XRECORD
  5
4
102
{ACAD_REACTORS
330
3
102
}
100
AcDbXrecord
340
2
  0
XRECORD
  5
B
102
{ACAD_REACTORS
330
A
102
}
100
AcDbXrecord
340
9
  0
MLINESTYLE
  5
20
102
{ACAD_REACTORS
330
1D
102
}
100
AcDbMlineStyle
  2
STANDARD
 70
     0
  3

 62
     0
 51
90.0
 52
90.0
 71
     2
 49
0.5
 62
   256
  6
BYLAYER
 49
-0.5
 62
   256
  6
BYLAYER
  0
ENDSEC
  0
EOF
